<svg width="135" height="100" viewBox="0 0 135 100" fill="none" xmlns="http://www.w3.org/2000/svg">
<circle cx="68" cy="50" r="49.5" fill="#53D048" stroke="black" stroke-linecap="round"/>
<path d="M34.2137 42V41.8185L34.8952 41.0726C34.9751 40.9852 35.041 40.9093 35.0927 40.8448C35.1445 40.7796 35.1828 40.7184 35.2077 40.6613C35.2332 40.6035 35.246 40.543 35.246 40.4798C35.246 40.4073 35.2285 40.3444 35.1935 40.2913C35.1593 40.2382 35.1122 40.1972 35.0524 40.1683C34.9926 40.1394 34.9254 40.125 34.8508 40.125C34.7715 40.125 34.7023 40.1415 34.6431 40.1744C34.5847 40.2067 34.5393 40.252 34.5071 40.3105C34.4755 40.369 34.4597 40.4375 34.4597 40.5161H34.2218C34.2218 40.3952 34.2497 40.289 34.3054 40.1976C34.3612 40.1062 34.4372 40.0349 34.5333 39.9839C34.63 39.9328 34.7386 39.9073 34.8589 39.9073C34.9798 39.9073 35.087 39.9328 35.1804 39.9839C35.2739 40.0349 35.3471 40.1038 35.4002 40.1905C35.4533 40.2772 35.4798 40.3737 35.4798 40.4798C35.4798 40.5558 35.4661 40.63 35.4385 40.7026C35.4116 40.7745 35.3646 40.8548 35.2974 40.9435C35.2308 41.0316 35.1384 41.1391 35.0202 41.2661L34.5565 41.7621V41.7782H35.5161V42H34.2137ZM36.7349 42.5806V40.4516H36.9647V40.6976H36.9929C37.0104 40.6707 37.0346 40.6364 37.0655 40.5948C37.0971 40.5524 37.1421 40.5148 37.2006 40.4819C37.2597 40.4483 37.3397 40.4315 37.4405 40.4315C37.5709 40.4315 37.6858 40.464 37.7853 40.5292C37.8847 40.5944 37.9624 40.6868 38.0181 40.8065C38.0739 40.9261 38.1018 41.0672 38.1018 41.2298C38.1018 41.3938 38.0739 41.536 38.0181 41.6563C37.9624 41.7759 37.8851 41.8686 37.7863 41.9345C37.6875 41.9997 37.5736 42.0323 37.4446 42.0323C37.3451 42.0323 37.2655 42.0158 37.2056 41.9829C37.1458 41.9493 37.0998 41.9113 37.0675 41.869C37.0353 41.8259 37.0104 41.7903 36.9929 41.7621H36.9728V42.5806H36.7349ZM36.9687 41.2258C36.9687 41.3427 36.9859 41.4459 37.0202 41.5353C37.0544 41.624 37.1045 41.6935 37.1704 41.744C37.2362 41.7937 37.3169 41.8185 37.4123 41.8185C37.5118 41.8185 37.5948 41.7923 37.6613 41.7399C37.7285 41.6868 37.7789 41.6156 37.8125 41.5262C37.8468 41.4362 37.8639 41.336 37.8639 41.2258C37.8639 41.1169 37.8471 41.0188 37.8135 40.9315C37.7806 40.8434 37.7305 40.7739 37.6633 40.7228C37.5968 40.671 37.5131 40.6452 37.4123 40.6452C37.3155 40.6452 37.2342 40.6697 37.1683 40.7188C37.1025 40.7671 37.0528 40.835 37.0192 40.9224C36.9856 41.0091 36.9687 41.1102 36.9687 41.2258ZM39.0938 42.0323C38.954 42.0323 38.8313 41.999 38.7258 41.9325C38.621 41.8659 38.539 41.7728 38.4798 41.6532C38.4214 41.5336 38.3921 41.3938 38.3921 41.2339C38.3921 41.0726 38.4214 40.9318 38.4798 40.8115C38.539 40.6912 38.621 40.5978 38.7258 40.5313C38.8313 40.4647 38.954 40.4315 39.0938 40.4315C39.2335 40.4315 39.3558 40.4647 39.4607 40.5313C39.5662 40.5978 39.6482 40.6912 39.7067 40.8115C39.7658 40.9318 39.7954 41.0726 39.7954 41.2339C39.7954 41.3938 39.7658 41.5336 39.7067 41.6532C39.6482 41.7728 39.5662 41.8659 39.4607 41.9325C39.3558 41.999 39.2335 42.0323 39.0938 42.0323ZM39.0938 41.8185C39.1999 41.8185 39.2873 41.7913 39.3558 41.7369C39.4244 41.6825 39.4751 41.6109 39.5081 41.5222C39.541 41.4335 39.5575 41.3374 39.5575 41.2339C39.5575 41.1304 39.541 41.0339 39.5081 40.9446C39.4751 40.8552 39.4244 40.7829 39.3558 40.7278C39.2873 40.6727 39.1999 40.6452 39.0938 40.6452C38.9876 40.6452 38.9002 40.6727 38.8317 40.7278C38.7631 40.7829 38.7124 40.8552 38.6794 40.9446C38.6465 41.0339 38.63 41.1304 38.63 41.2339C38.63 41.3374 38.6465 41.4335 38.6794 41.5222C38.7124 41.6109 38.7631 41.6825 38.8317 41.7369C38.9002 41.7913 38.9876 41.8185 39.0938 41.8185ZM40.1585 42V40.4516H40.3964V42H40.1585ZM40.2795 40.1935C40.2331 40.1935 40.1931 40.1778 40.1595 40.1462C40.1266 40.1146 40.1101 40.0766 40.1101 40.0323C40.1101 39.9879 40.1266 39.9499 40.1595 39.9183C40.1931 39.8868 40.2331 39.871 40.2795 39.871C40.3259 39.871 40.3655 39.8868 40.3984 39.9183C40.432 39.9499 40.4488 39.9879 40.4488 40.0323C40.4488 40.0766 40.432 40.1146 40.3984 40.1462C40.3655 40.1778 40.3259 40.1935 40.2795 40.1935ZM41.0701 41.0685V42H40.8322V40.4516H41.062V40.6935H41.0822C41.1184 40.6149 41.1736 40.5517 41.2475 40.504C41.3214 40.4556 41.4168 40.4315 41.5338 40.4315C41.6386 40.4315 41.7303 40.453 41.809 40.496C41.8876 40.5383 41.9488 40.6028 41.9924 40.6895C42.0361 40.7755 42.058 40.8844 42.058 41.0161V42H41.8201V41.0323C41.8201 40.9106 41.7885 40.8159 41.7253 40.748C41.6621 40.6794 41.5754 40.6452 41.4652 40.6452C41.3893 40.6452 41.3214 40.6616 41.2616 40.6946C41.2025 40.7275 41.1557 40.7755 41.1215 40.8387C41.0872 40.9019 41.0701 40.9785 41.0701 41.0685ZM43.1661 40.4516V40.6532H42.3637V40.4516H43.1661ZM42.5975 40.0806H42.8354V41.5565C42.8354 41.6237 42.8452 41.6741 42.8647 41.7077C42.8848 41.7406 42.9104 41.7628 42.9413 41.7742C42.9729 41.7849 43.0061 41.7903 43.0411 41.7903C43.0673 41.7903 43.0888 41.789 43.1056 41.7863C43.1224 41.7829 43.1358 41.7802 43.1459 41.7782L43.1943 41.9919C43.1782 41.998 43.1557 42.004 43.1268 42.0101C43.0979 42.0168 43.0612 42.0202 43.0169 42.0202C42.9497 42.0202 42.8838 42.0057 42.8193 41.9768C42.7555 41.9479 42.7024 41.9039 42.66 41.8448C42.6184 41.7856 42.5975 41.711 42.5975 41.621V40.0806ZM44.593 40.7984L44.3793 40.8589C44.3658 40.8233 44.346 40.7886 44.3198 40.755C44.2943 40.7208 44.2593 40.6925 44.215 40.6704C44.1706 40.6482 44.1138 40.6371 44.0446 40.6371C43.9498 40.6371 43.8709 40.6589 43.8077 40.7026C43.7452 40.7456 43.714 40.8004 43.714 40.8669C43.714 40.9261 43.7355 40.9728 43.7785 41.0071C43.8215 41.0413 43.8887 41.0699 43.9801 41.0927L44.2099 41.1492C44.3484 41.1828 44.4515 41.2342 44.5194 41.3034C44.5873 41.372 44.6212 41.4603 44.6212 41.5685C44.6212 41.6573 44.5957 41.7366 44.5446 41.8065C44.4942 41.8763 44.4236 41.9315 44.3329 41.9718C44.2422 42.0121 44.1367 42.0323 44.0164 42.0323C43.8585 42.0323 43.7277 41.998 43.6242 41.9294C43.5207 41.8609 43.4552 41.7608 43.4277 41.629L43.6535 41.5726C43.675 41.6559 43.7156 41.7184 43.7755 41.7601C43.8359 41.8017 43.9149 41.8226 44.0123 41.8226C44.1232 41.8226 44.2113 41.7991 44.2765 41.752C44.3423 41.7043 44.3753 41.6472 44.3753 41.5806C44.3753 41.5269 44.3564 41.4819 44.3188 41.4456C44.2812 41.4086 44.2234 41.381 44.1454 41.3629L43.8873 41.3024C43.7455 41.2688 43.6414 41.2167 43.5748 41.1462C43.509 41.0749 43.4761 40.9859 43.4761 40.879C43.4761 40.7917 43.5006 40.7144 43.5496 40.6472C43.5994 40.58 43.6669 40.5272 43.7523 40.4889C43.8383 40.4506 43.9357 40.4315 44.0446 40.4315C44.1978 40.4315 44.3181 40.4651 44.4055 40.5323C44.4935 40.5995 44.556 40.6882 44.593 40.7984Z" fill="white"/>
<path d="M39.1653 31.5766V31.371L40.0726 29.9355H40.2218V30.254H40.121L39.4355 31.3387V31.3548H40.6573V31.5766H39.1653ZM40.1371 32V31.5141V31.4183V29.9355H40.375V32H40.1371ZM41.8374 32.5806V30.4516H42.0673V30.6976H42.0955C42.113 30.6707 42.1372 30.6364 42.1681 30.5948C42.1997 30.5524 42.2447 30.5148 42.3032 30.4819C42.3623 30.4483 42.4423 30.4315 42.5431 30.4315C42.6735 30.4315 42.7884 30.464 42.8879 30.5292C42.9873 30.5944 43.0649 30.6868 43.1207 30.8065C43.1765 30.9261 43.2044 31.0672 43.2044 31.2298C43.2044 31.3938 43.1765 31.536 43.1207 31.6563C43.0649 31.7759 42.9877 31.8686 42.8889 31.9345C42.7901 31.9997 42.6762 32.0323 42.5471 32.0323C42.4477 32.0323 42.368 32.0158 42.3082 31.9829C42.2484 31.9493 42.2024 31.9113 42.1701 31.869C42.1379 31.8259 42.113 31.7903 42.0955 31.7621H42.0754V32.5806H41.8374ZM42.0713 31.2258C42.0713 31.3427 42.0885 31.4459 42.1227 31.5353C42.157 31.624 42.2071 31.6935 42.2729 31.744C42.3388 31.7937 42.4194 31.8185 42.5149 31.8185C42.6143 31.8185 42.6973 31.7923 42.7639 31.7399C42.8311 31.6868 42.8815 31.6156 42.9151 31.5262C42.9493 31.4362 42.9665 31.336 42.9665 31.2258C42.9665 31.1169 42.9497 31.0188 42.9161 30.9315C42.8831 30.8434 42.8331 30.7739 42.7659 30.7228C42.6993 30.671 42.6157 30.6452 42.5149 30.6452C42.4181 30.6452 42.3368 30.6697 42.2709 30.7188C42.2051 30.7671 42.1553 30.835 42.1217 30.9224C42.0881 31.0091 42.0713 31.1102 42.0713 31.2258ZM44.1963 32.0323C44.0565 32.0323 43.9339 31.999 43.8284 31.9325C43.7235 31.8659 43.6415 31.7728 43.5824 31.6532C43.5239 31.5336 43.4947 31.3938 43.4947 31.2339C43.4947 31.0726 43.5239 30.9318 43.5824 30.8115C43.6415 30.6912 43.7235 30.5978 43.8284 30.5313C43.9339 30.4647 44.0565 30.4315 44.1963 30.4315C44.3361 30.4315 44.4584 30.4647 44.5633 30.5313C44.6688 30.5978 44.7508 30.6912 44.8092 30.8115C44.8684 30.9318 44.8979 31.0726 44.8979 31.2339C44.8979 31.3938 44.8684 31.5336 44.8092 31.6532C44.7508 31.7728 44.6688 31.8659 44.5633 31.9325C44.4584 31.999 44.3361 32.0323 44.1963 32.0323ZM44.1963 31.8185C44.3025 31.8185 44.3899 31.7913 44.4584 31.7369C44.527 31.6825 44.5777 31.6109 44.6106 31.5222C44.6436 31.4335 44.66 31.3374 44.66 31.2339C44.66 31.1304 44.6436 31.0339 44.6106 30.9446C44.5777 30.8552 44.527 30.7829 44.4584 30.7278C44.3899 30.6727 44.3025 30.6452 44.1963 30.6452C44.0901 30.6452 44.0028 30.6727 43.9342 30.7278C43.8657 30.7829 43.8149 30.8552 43.782 30.9446C43.7491 31.0339 43.7326 31.1304 43.7326 31.2339C43.7326 31.3374 43.7491 31.4335 43.782 31.5222C43.8149 31.6109 43.8657 31.6825 43.9342 31.7369C44.0028 31.7913 44.0901 31.8185 44.1963 31.8185ZM45.2611 32V30.4516H45.499V32H45.2611ZM45.3821 30.1935C45.3357 30.1935 45.2957 30.1778 45.2621 30.1462C45.2292 30.1146 45.2127 30.0766 45.2127 30.0323C45.2127 29.9879 45.2292 29.9499 45.2621 29.9183C45.2957 29.8868 45.3357 29.871 45.3821 29.871C45.4284 29.871 45.4681 29.8868 45.501 29.9183C45.5346 29.9499 45.5514 29.9879 45.5514 30.0323C45.5514 30.0766 45.5346 30.1146 45.501 30.1462C45.4681 30.1778 45.4284 30.1935 45.3821 30.1935ZM46.1726 31.0685V32H45.9347V30.4516H46.1646V30.6935H46.1847C46.221 30.6149 46.2761 30.5517 46.3501 30.504C46.424 30.4556 46.5194 30.4315 46.6363 30.4315C46.7412 30.4315 46.8329 30.453 46.9115 30.496C46.9902 30.5383 47.0513 30.6028 47.095 30.6895C47.1387 30.7755 47.1605 30.8844 47.1605 31.0161V32H46.9226V31.0323C46.9226 30.9106 46.891 30.8159 46.8279 30.748C46.7647 30.6794 46.678 30.6452 46.5678 30.6452C46.4919 30.6452 46.424 30.6616 46.3642 30.6946C46.305 30.7275 46.2583 30.7755 46.224 30.8387C46.1898 30.9019 46.1726 30.9785 46.1726 31.0685ZM48.2686 30.4516V30.6532H47.4662V30.4516H48.2686ZM47.7001 30.0806H47.938V31.5565C47.938 31.6237 47.9477 31.6741 47.9672 31.7077C47.9874 31.7406 48.0129 31.7628 48.0439 31.7742C48.0754 31.7849 48.1087 31.7903 48.1436 31.7903C48.1699 31.7903 48.1914 31.789 48.2082 31.7863C48.225 31.7829 48.2384 31.7802 48.2485 31.7782L48.2969 31.9919C48.2807 31.998 48.2582 32.004 48.2293 32.0101C48.2004 32.0168 48.1638 32.0202 48.1195 32.0202C48.0523 32.0202 47.9864 32.0057 47.9219 31.9768C47.858 31.9479 47.8049 31.9039 47.7626 31.8448C47.7209 31.7856 47.7001 31.711 47.7001 31.621V30.0806ZM49.6956 30.7984L49.4819 30.8589C49.4684 30.8233 49.4486 30.7886 49.4224 30.755C49.3968 30.7208 49.3619 30.6925 49.3175 30.6704C49.2732 30.6482 49.2164 30.6371 49.1472 30.6371C49.0524 30.6371 48.9735 30.6589 48.9103 30.7026C48.8478 30.7456 48.8165 30.8004 48.8165 30.8669C48.8165 30.9261 48.838 30.9728 48.881 31.0071C48.9241 31.0413 48.9913 31.0699 49.0827 31.0927L49.3125 31.1492C49.4509 31.1828 49.5541 31.2342 49.622 31.3034C49.6899 31.372 49.7238 31.4603 49.7238 31.5685C49.7238 31.6573 49.6983 31.7366 49.6472 31.8065C49.5968 31.8763 49.5262 31.9315 49.4355 31.9718C49.3448 32.0121 49.2392 32.0323 49.119 32.0323C48.961 32.0323 48.8303 31.998 48.7268 31.9294C48.6233 31.8609 48.5578 31.7608 48.5302 31.629L48.756 31.5726C48.7776 31.6559 48.8182 31.7184 48.878 31.7601C48.9385 31.8017 49.0175 31.8226 49.1149 31.8226C49.2258 31.8226 49.3138 31.7991 49.379 31.752C49.4449 31.7043 49.4778 31.6472 49.4778 31.5806C49.4778 31.5269 49.459 31.4819 49.4214 31.4456C49.3837 31.4086 49.3259 31.381 49.248 31.3629L48.9899 31.3024C48.8481 31.2688 48.744 31.2167 48.6774 31.1462C48.6116 31.0749 48.5786 30.9859 48.5786 30.879C48.5786 30.7917 48.6032 30.7144 48.6522 30.6472C48.7019 30.58 48.7695 30.5272 48.8548 30.4889C48.9409 30.4506 49.0383 30.4315 49.1472 30.4315C49.3004 30.4315 49.4207 30.4651 49.5081 30.5323C49.5961 30.5995 49.6586 30.6882 49.6956 30.7984Z" fill="white"/>
<path d="M45.8589 23.0282C45.7406 23.0282 45.6341 23.0047 45.5393 22.9577C45.4446 22.9106 45.3686 22.8461 45.3115 22.7641C45.2544 22.6821 45.2231 22.5887 45.2177 22.4839H45.4597C45.4691 22.5773 45.5114 22.6546 45.5867 22.7157C45.6626 22.7762 45.7534 22.8065 45.8589 22.8065C45.9435 22.8065 46.0188 22.7866 46.0847 22.747C46.1512 22.7073 46.2033 22.6529 46.2409 22.5837C46.2792 22.5138 46.2984 22.4348 46.2984 22.3468C46.2984 22.2567 46.2786 22.1764 46.2389 22.1058C46.1999 22.0346 46.1462 21.9785 46.0776 21.9375C46.0091 21.8965 45.9308 21.8757 45.8427 21.875C45.7796 21.8743 45.7147 21.8841 45.6482 21.9042C45.5817 21.9237 45.5269 21.9489 45.4839 21.9798L45.25 21.9516L45.375 20.9355H46.4476V21.1573H45.5847L45.5121 21.7661H45.5242C45.5665 21.7325 45.6196 21.7046 45.6835 21.6825C45.7473 21.6603 45.8138 21.6492 45.8831 21.6492C46.0094 21.6492 46.122 21.6794 46.2208 21.7399C46.3202 21.7997 46.3982 21.8817 46.4546 21.9859C46.5118 22.0901 46.5403 22.209 46.5403 22.3427C46.5403 22.4745 46.5108 22.5921 46.4516 22.6956C46.3931 22.7984 46.3125 22.8797 46.2097 22.9395C46.1069 22.9987 45.9899 23.0282 45.8589 23.0282ZM47.7432 23.5806V21.4516H47.973V21.6976H48.0013C48.0187 21.6707 48.0429 21.6364 48.0738 21.5948C48.1054 21.5524 48.1505 21.5148 48.2089 21.4819C48.2681 21.4483 48.348 21.4315 48.4488 21.4315C48.5792 21.4315 48.6941 21.464 48.7936 21.5292C48.8931 21.5944 48.9707 21.6868 49.0265 21.8065C49.0822 21.9261 49.1101 22.0672 49.1101 22.2298C49.1101 22.3938 49.0822 22.536 49.0265 22.6563C48.9707 22.7759 48.8934 22.8686 48.7946 22.9345C48.6958 22.9997 48.5819 23.0323 48.4529 23.0323C48.3534 23.0323 48.2738 23.0158 48.214 22.9829C48.1541 22.9493 48.1081 22.9113 48.0759 22.869C48.0436 22.8259 48.0187 22.7903 48.0013 22.7621H47.9811V23.5806H47.7432ZM47.9771 22.2258C47.9771 22.3427 47.9942 22.4459 48.0285 22.5353C48.0628 22.624 48.1128 22.6935 48.1787 22.744C48.2445 22.7937 48.3252 22.8185 48.4206 22.8185C48.5201 22.8185 48.6031 22.7923 48.6696 22.7399C48.7368 22.6868 48.7872 22.6156 48.8208 22.5262C48.8551 22.4362 48.8722 22.336 48.8722 22.2258C48.8722 22.1169 48.8554 22.0188 48.8218 21.9315C48.7889 21.8434 48.7388 21.7739 48.6716 21.7228C48.6051 21.671 48.5214 21.6452 48.4206 21.6452C48.3238 21.6452 48.2425 21.6697 48.1767 21.7188C48.1108 21.7671 48.0611 21.835 48.0275 21.9224C47.9939 22.0091 47.9771 22.1102 47.9771 22.2258ZM50.1021 23.0323C49.9623 23.0323 49.8396 22.999 49.7341 22.9325C49.6293 22.8659 49.5473 22.7728 49.4882 22.6532C49.4297 22.5336 49.4005 22.3938 49.4005 22.2339C49.4005 22.0726 49.4297 21.9318 49.4882 21.8115C49.5473 21.6912 49.6293 21.5978 49.7341 21.5313C49.8396 21.4647 49.9623 21.4315 50.1021 21.4315C50.2419 21.4315 50.3642 21.4647 50.469 21.5313C50.5745 21.5978 50.6565 21.6912 50.715 21.8115C50.7741 21.9318 50.8037 22.0726 50.8037 22.2339C50.8037 22.3938 50.7741 22.5336 50.715 22.6532C50.6565 22.7728 50.5745 22.8659 50.469 22.9325C50.3642 22.999 50.2419 23.0323 50.1021 23.0323ZM50.1021 22.8185C50.2082 22.8185 50.2956 22.7913 50.3642 22.7369C50.4327 22.6825 50.4835 22.6109 50.5164 22.5222C50.5493 22.4335 50.5658 22.3374 50.5658 22.2339C50.5658 22.1304 50.5493 22.0339 50.5164 21.9446C50.4835 21.8552 50.4327 21.7829 50.3642 21.7278C50.2956 21.6727 50.2082 21.6452 50.1021 21.6452C49.9959 21.6452 49.9085 21.6727 49.84 21.7278C49.7714 21.7829 49.7207 21.8552 49.6878 21.9446C49.6548 22.0339 49.6384 22.1304 49.6384 22.2339C49.6384 22.3374 49.6548 22.4335 49.6878 22.5222C49.7207 22.6109 49.7714 22.6825 49.84 22.7369C49.9085 22.7913 49.9959 22.8185 50.1021 22.8185ZM51.1668 23V21.4516H51.4047V23H51.1668ZM51.2878 21.1935C51.2414 21.1935 51.2014 21.1778 51.1678 21.1462C51.1349 21.1146 51.1184 21.0766 51.1184 21.0323C51.1184 20.9879 51.1349 20.9499 51.1678 20.9183C51.2014 20.8868 51.2414 20.871 51.2878 20.871C51.3342 20.871 51.3738 20.8868 51.4068 20.9183C51.4404 20.9499 51.4572 20.9879 51.4572 21.0323C51.4572 21.0766 51.4404 21.1146 51.4068 21.1462C51.3738 21.1778 51.3342 21.1935 51.2878 21.1935ZM52.0784 22.0685V23H51.8405V21.4516H52.0703V21.6935H52.0905C52.1268 21.6149 52.1819 21.5517 52.2558 21.504C52.3297 21.4556 52.4252 21.4315 52.5421 21.4315C52.6469 21.4315 52.7387 21.453 52.8173 21.496C52.8959 21.5383 52.9571 21.6028 53.0008 21.6895C53.0444 21.7755 53.0663 21.8844 53.0663 22.0161V23H52.8284V22.0323C52.8284 21.9106 52.7968 21.8159 52.7336 21.748C52.6704 21.6794 52.5838 21.6452 52.4735 21.6452C52.3976 21.6452 52.3297 21.6616 52.2699 21.6946C52.2108 21.7275 52.1641 21.7755 52.1298 21.8387C52.0955 21.9019 52.0784 21.9785 52.0784 22.0685ZM54.1744 21.4516V21.6532H53.372V21.4516H54.1744ZM53.6058 21.0806H53.8437V22.5565C53.8437 22.6237 53.8535 22.6741 53.873 22.7077C53.8931 22.7406 53.9187 22.7628 53.9496 22.7742C53.9812 22.7849 54.0144 22.7903 54.0494 22.7903C54.0756 22.7903 54.0971 22.789 54.1139 22.7863C54.1307 22.7829 54.1442 22.7802 54.1542 22.7782L54.2026 22.9919C54.1865 22.998 54.164 23.004 54.1351 23.0101C54.1062 23.0168 54.0696 23.0202 54.0252 23.0202C53.958 23.0202 53.8921 23.0057 53.8276 22.9768C53.7638 22.9479 53.7107 22.9039 53.6683 22.8448C53.6267 22.7856 53.6058 22.711 53.6058 22.621V21.0806ZM55.6013 21.7984L55.3876 21.8589C55.3742 21.8233 55.3543 21.7886 55.3281 21.755C55.3026 21.7208 55.2676 21.6925 55.2233 21.6704C55.1789 21.6482 55.1221 21.6371 55.0529 21.6371C54.9582 21.6371 54.8792 21.6589 54.816 21.7026C54.7535 21.7456 54.7223 21.8004 54.7223 21.8669C54.7223 21.9261 54.7438 21.9728 54.7868 22.0071C54.8298 22.0413 54.897 22.0699 54.9884 22.0927L55.2182 22.1492C55.3567 22.1828 55.4598 22.2342 55.5277 22.3034C55.5956 22.372 55.6295 22.4603 55.6295 22.5685C55.6295 22.6573 55.604 22.7366 55.5529 22.8065C55.5025 22.8763 55.432 22.9315 55.3412 22.9718C55.2505 23.0121 55.145 23.0323 55.0247 23.0323C54.8668 23.0323 54.7361 22.998 54.6326 22.9294C54.5291 22.8609 54.4635 22.7608 54.436 22.629L54.6618 22.5726C54.6833 22.6559 54.724 22.7184 54.7838 22.7601C54.8443 22.8017 54.9232 22.8226 55.0207 22.8226C55.1316 22.8226 55.2196 22.7991 55.2848 22.752C55.3506 22.7043 55.3836 22.6472 55.3836 22.5806C55.3836 22.5269 55.3648 22.4819 55.3271 22.4456C55.2895 22.4086 55.2317 22.381 55.1537 22.3629L54.8957 22.3024C54.7539 22.2688 54.6497 22.2167 54.5832 22.1462C54.5173 22.0749 54.4844 21.9859 54.4844 21.879C54.4844 21.7917 54.5089 21.7144 54.558 21.6472C54.6077 21.58 54.6752 21.5272 54.7606 21.4889C54.8466 21.4506 54.9441 21.4315 55.0529 21.4315C55.2061 21.4315 55.3264 21.4651 55.4138 21.5323C55.5018 21.5995 55.5643 21.6882 55.6013 21.7984Z" fill="white"/>
<path d="M56.8992 17.0282C56.8145 17.0269 56.7298 17.0108 56.6452 16.9798C56.5605 16.9489 56.4832 16.8968 56.4133 16.8236C56.3434 16.7497 56.2873 16.6499 56.245 16.5242C56.2026 16.3978 56.1815 16.2392 56.1815 16.0484C56.1815 15.8656 56.1986 15.7036 56.2329 15.5625C56.2671 15.4207 56.3169 15.3014 56.3821 15.2046C56.4472 15.1072 56.5259 15.0333 56.6179 14.9829C56.7107 14.9325 56.8152 14.9073 56.9315 14.9073C57.047 14.9073 57.1499 14.9304 57.2399 14.9768C57.3306 15.0225 57.4046 15.0864 57.4617 15.1683C57.5188 15.2503 57.5558 15.3448 57.5726 15.4516H57.3266C57.3038 15.3589 57.2594 15.2819 57.1935 15.2208C57.1277 15.1596 57.0403 15.129 56.9315 15.129C56.7715 15.129 56.6455 15.1986 56.5534 15.3377C56.462 15.4768 56.416 15.672 56.4153 15.9234H56.4315C56.4691 15.8663 56.5138 15.8175 56.5655 15.7772C56.6179 15.7362 56.6757 15.7046 56.7389 15.6825C56.8021 15.6603 56.869 15.6492 56.9395 15.6492C57.0578 15.6492 57.166 15.6788 57.2641 15.7379C57.3622 15.7964 57.4409 15.8774 57.5 15.9808C57.5591 16.0837 57.5887 16.2016 57.5887 16.3347C57.5887 16.4624 57.5601 16.5793 57.503 16.6855C57.4459 16.791 57.3656 16.875 57.2621 16.9375C57.1593 16.9993 57.0383 17.0296 56.8992 17.0282ZM56.8992 16.8065C56.9839 16.8065 57.0598 16.7853 57.127 16.7429C57.1949 16.7006 57.2483 16.6438 57.2873 16.5726C57.3269 16.5013 57.3468 16.422 57.3468 16.3347C57.3468 16.2493 57.3276 16.1717 57.2893 16.1018C57.2517 16.0313 57.1996 15.9751 57.1331 15.9335C57.0672 15.8918 56.9919 15.871 56.9073 15.871C56.8434 15.871 56.7839 15.8837 56.7288 15.9093C56.6737 15.9341 56.6253 15.9684 56.5837 16.0121C56.5427 16.0558 56.5104 16.1058 56.4869 16.1623C56.4634 16.2181 56.4516 16.2769 56.4516 16.3387C56.4516 16.4207 56.4708 16.4973 56.5091 16.5685C56.5481 16.6398 56.6011 16.6972 56.6683 16.7409C56.7362 16.7846 56.8132 16.8065 56.8992 16.8065ZM58.7876 17.5806V15.4516H59.0174V15.6976H59.0456C59.0631 15.6707 59.0873 15.6364 59.1182 15.5948C59.1498 15.5524 59.1948 15.5148 59.2533 15.4819C59.3124 15.4483 59.3924 15.4315 59.4932 15.4315C59.6236 15.4315 59.7385 15.464 59.838 15.5292C59.9374 15.5944 60.015 15.6868 60.0708 15.8065C60.1266 15.9261 60.1545 16.0672 60.1545 16.2298C60.1545 16.3938 60.1266 16.536 60.0708 16.6563C60.015 16.7759 59.9378 16.8686 59.839 16.9345C59.7402 16.9997 59.6263 17.0323 59.4972 17.0323C59.3978 17.0323 59.3181 17.0158 59.2583 16.9829C59.1985 16.9493 59.1525 16.9113 59.1202 16.869C59.088 16.8259 59.0631 16.7903 59.0456 16.7621H59.0255V17.5806H58.7876ZM59.0214 16.2258C59.0214 16.3427 59.0386 16.4459 59.0728 16.5353C59.1071 16.624 59.1572 16.6935 59.223 16.744C59.2889 16.7937 59.3695 16.8185 59.465 16.8185C59.5644 16.8185 59.6474 16.7923 59.714 16.7399C59.7812 16.6868 59.8316 16.6156 59.8652 16.5262C59.8994 16.4362 59.9166 16.336 59.9166 16.2258C59.9166 16.1169 59.8998 16.0188 59.8662 15.9315C59.8332 15.8434 59.7832 15.7739 59.716 15.7228C59.6494 15.671 59.5658 15.6452 59.465 15.6452C59.3682 15.6452 59.2869 15.6697 59.221 15.7188C59.1552 15.7671 59.1054 15.835 59.0718 15.9224C59.0382 16.0091 59.0214 16.1102 59.0214 16.2258ZM61.1464 17.0323C61.0066 17.0323 60.884 16.999 60.7785 16.9325C60.6736 16.8659 60.5916 16.7728 60.5325 16.6532C60.474 16.5336 60.4448 16.3938 60.4448 16.2339C60.4448 16.0726 60.474 15.9318 60.5325 15.8115C60.5916 15.6912 60.6736 15.5978 60.7785 15.5313C60.884 15.4647 61.0066 15.4315 61.1464 15.4315C61.2862 15.4315 61.4085 15.4647 61.5134 15.5313C61.6189 15.5978 61.7009 15.6912 61.7593 15.8115C61.8185 15.9318 61.848 16.0726 61.848 16.2339C61.848 16.3938 61.8185 16.5336 61.7593 16.6532C61.7009 16.7728 61.6189 16.8659 61.5134 16.9325C61.4085 16.999 61.2862 17.0323 61.1464 17.0323ZM61.1464 16.8185C61.2526 16.8185 61.34 16.7913 61.4085 16.7369C61.4771 16.6825 61.5278 16.6109 61.5607 16.5222C61.5937 16.4335 61.6101 16.3374 61.6101 16.2339C61.6101 16.1304 61.5937 16.0339 61.5607 15.9446C61.5278 15.8552 61.4771 15.7829 61.4085 15.7278C61.34 15.6727 61.2526 15.6452 61.1464 15.6452C61.0402 15.6452 60.9529 15.6727 60.8843 15.7278C60.8158 15.7829 60.765 15.8552 60.7321 15.9446C60.6992 16.0339 60.6827 16.1304 60.6827 16.2339C60.6827 16.3374 60.6992 16.4335 60.7321 16.5222C60.765 16.6109 60.8158 16.6825 60.8843 16.7369C60.9529 16.7913 61.0402 16.8185 61.1464 16.8185ZM62.2112 17V15.4516H62.4491V17H62.2112ZM62.3322 15.1935C62.2858 15.1935 62.2458 15.1778 62.2122 15.1462C62.1793 15.1146 62.1628 15.0766 62.1628 15.0323C62.1628 14.9879 62.1793 14.9499 62.2122 14.9183C62.2458 14.8868 62.2858 14.871 62.3322 14.871C62.3785 14.871 62.4182 14.8868 62.4511 14.9183C62.4847 14.9499 62.5015 14.9879 62.5015 15.0323C62.5015 15.0766 62.4847 15.1146 62.4511 15.1462C62.4182 15.1778 62.3785 15.1935 62.3322 15.1935ZM63.1227 16.0685V17H62.8848V15.4516H63.1147V15.6935H63.1348C63.1711 15.6149 63.2262 15.5517 63.3002 15.504C63.3741 15.4556 63.4695 15.4315 63.5864 15.4315C63.6913 15.4315 63.783 15.453 63.8616 15.496C63.9403 15.5383 64.0014 15.6028 64.0451 15.6895C64.0888 15.7755 64.1106 15.8844 64.1106 16.0161V17H63.8727V16.0323C63.8727 15.9106 63.8411 15.8159 63.778 15.748C63.7148 15.6794 63.6281 15.6452 63.5179 15.6452C63.442 15.6452 63.3741 15.6616 63.3143 15.6946C63.2551 15.7275 63.2084 15.7755 63.1741 15.8387C63.1399 15.9019 63.1227 15.9785 63.1227 16.0685ZM65.2187 15.4516V15.6532H64.4163V15.4516H65.2187ZM64.6502 15.0806H64.8881V16.5565C64.8881 16.6237 64.8978 16.6741 64.9173 16.7077C64.9375 16.7406 64.963 16.7628 64.994 16.7742C65.0255 16.7849 65.0588 16.7903 65.0937 16.7903C65.12 16.7903 65.1415 16.789 65.1583 16.7863C65.1751 16.7829 65.1885 16.7802 65.1986 16.7782L65.247 16.9919C65.2308 16.998 65.2083 17.004 65.1794 17.0101C65.1505 17.0168 65.1139 17.0202 65.0696 17.0202C65.0024 17.0202 64.9365 17.0057 64.872 16.9768C64.8081 16.9479 64.755 16.9039 64.7127 16.8448C64.671 16.7856 64.6502 16.711 64.6502 16.621V15.0806ZM66.6457 15.7984L66.432 15.8589C66.4185 15.8233 66.3987 15.7886 66.3725 15.755C66.3469 15.7208 66.312 15.6925 66.2676 15.6704C66.2233 15.6482 66.1665 15.6371 66.0973 15.6371C66.0025 15.6371 65.9236 15.6589 65.8604 15.7026C65.7979 15.7456 65.7666 15.8004 65.7666 15.8669C65.7666 15.9261 65.7881 15.9728 65.8311 16.0071C65.8742 16.0413 65.9414 16.0699 66.0328 16.0927L66.2626 16.1492C66.401 16.1828 66.5042 16.2342 66.5721 16.3034C66.64 16.372 66.6739 16.4603 66.6739 16.5685C66.6739 16.6573 66.6484 16.7366 66.5973 16.8065C66.5469 16.8763 66.4763 16.9315 66.3856 16.9718C66.2949 17.0121 66.1893 17.0323 66.0691 17.0323C65.9111 17.0323 65.7804 16.998 65.6769 16.9294C65.5734 16.8609 65.5079 16.7608 65.4803 16.629L65.7061 16.5726C65.7277 16.6559 65.7683 16.7184 65.8281 16.7601C65.8886 16.8017 65.9676 16.8226 66.065 16.8226C66.1759 16.8226 66.2639 16.7991 66.3291 16.752C66.395 16.7043 66.4279 16.6472 66.4279 16.5806C66.4279 16.5269 66.4091 16.4819 66.3715 16.4456C66.3338 16.4086 66.276 16.381 66.1981 16.3629L65.94 16.3024C65.7982 16.2688 65.6941 16.2167 65.6275 16.1462C65.5617 16.0749 65.5287 15.9859 65.5287 15.879C65.5287 15.7917 65.5533 15.7144 65.6023 15.6472C65.652 15.58 65.7196 15.5272 65.8049 15.4889C65.891 15.4506 65.9884 15.4315 66.0973 15.4315C66.2505 15.4315 66.3708 15.4651 66.4582 15.5323C66.5462 15.5995 66.6087 15.6882 66.6457 15.7984Z" fill="white"/>
<path d="M81 44.6818C81.1913 44.6193 81.3627 44.5369 81.5142 44.4347C81.6676 44.3343 81.7983 44.214 81.9062 44.0739C82.0142 43.9356 82.0966 43.7784 82.1534 43.6023C82.2102 43.4261 82.2386 43.233 82.2386 43.0227C82.2386 42.678 82.1496 42.3646 81.9716 42.0824C81.7936 41.8002 81.5312 41.5758 81.1847 41.4091C80.8381 41.2424 80.4129 41.1591 79.9091 41.1591C79.4053 41.1591 78.9801 41.2434 78.6335 41.4119C78.2869 41.5805 78.0246 41.8087 77.8466 42.0966C77.6686 42.3845 77.5795 42.7083 77.5795 43.0682C77.5795 43.4015 77.6506 43.6951 77.7926 43.9489C77.9366 44.2045 78.1392 44.4034 78.4006 44.5455C78.6638 44.6894 78.9735 44.7614 79.3295 44.7614L79.2841 44.9773V43.2273H79.9091V45.4432H79.2841C78.8049 45.4432 78.3883 45.3409 78.0341 45.1364C77.6799 44.9337 77.4053 44.6534 77.2102 44.2955C77.017 43.9394 76.9205 43.5303 76.9205 43.0682C76.9205 42.553 77.0417 42.1004 77.2841 41.7102C77.5265 41.322 77.8712 41.0189 78.3182 40.8011C78.7652 40.5852 79.2955 40.4773 79.9091 40.4773C80.3693 40.4773 80.7831 40.5388 81.1506 40.6619C81.5199 40.7869 81.8343 40.9631 82.0938 41.1903C82.3532 41.4176 82.5521 41.6866 82.6903 41.9972C82.8286 42.3078 82.8977 42.6496 82.8977 43.0227C82.8977 43.3295 82.8513 43.6155 82.7585 43.8807C82.6676 44.1477 82.5379 44.3854 82.3693 44.5938C82.2027 44.804 82.0028 44.9792 81.7699 45.1193C81.5388 45.2595 81.2822 45.3561 81 45.4091V44.6818ZM76.8977 47.843C76.8977 47.5665 76.9498 47.3156 77.054 47.0902C77.16 46.8648 77.3125 46.6858 77.5114 46.5533C77.7121 46.4207 77.9545 46.3544 78.2386 46.3544C78.4886 46.3544 78.6913 46.4036 78.8466 46.5021C79.0038 46.6006 79.1269 46.7322 79.2159 46.897C79.3049 47.0618 79.3712 47.2436 79.4148 47.4425C79.4602 47.6432 79.4962 47.8449 79.5227 48.0476C79.5568 48.3127 79.5824 48.5277 79.5994 48.6925C79.6184 48.8591 79.6496 48.9804 79.6932 49.0561C79.7367 49.1338 79.8125 49.1726 79.9205 49.1726H79.9432C80.2235 49.1726 80.4413 49.0959 80.5966 48.9425C80.7519 48.791 80.8295 48.5608 80.8295 48.2521C80.8295 47.9321 80.7595 47.6811 80.6193 47.4993C80.4792 47.3175 80.3295 47.1896 80.1705 47.1158L80.3977 46.4794C80.6629 46.593 80.8693 46.7446 81.017 46.9339C81.1667 47.1252 81.2708 47.3336 81.3295 47.5589C81.3902 47.7862 81.4205 48.0097 81.4205 48.2294C81.4205 48.3696 81.4034 48.5305 81.3693 48.7124C81.3371 48.8961 81.2699 49.0732 81.1676 49.2436C81.0653 49.416 80.911 49.5589 80.7045 49.6726C80.4981 49.7862 80.2216 49.843 79.875 49.843H77V49.1726H77.5909V49.1385C77.4962 49.093 77.3949 49.0173 77.2869 48.9112C77.179 48.8052 77.0871 48.6641 77.0114 48.4879C76.9356 48.3118 76.8977 48.0968 76.8977 47.843ZM77.5 47.9453C77.5 48.2105 77.5521 48.4339 77.6562 48.6158C77.7604 48.7995 77.8949 48.9377 78.0597 49.0305C78.2244 49.1252 78.3977 49.1726 78.5795 49.1726H79.1932C79.1591 49.1442 79.1278 49.0817 79.0994 48.9851C79.0729 48.8904 79.0492 48.7805 79.0284 48.6555C79.0095 48.5324 78.9924 48.4122 78.9773 48.2947C78.964 48.1792 78.9527 48.0855 78.9432 48.0135C78.9205 47.8393 78.8835 47.6764 78.8324 47.5249C78.7831 47.3752 78.7083 47.254 78.608 47.1612C78.5095 47.0703 78.375 47.0249 78.2045 47.0249C77.9716 47.0249 77.7955 47.111 77.6761 47.2834C77.5587 47.4576 77.5 47.6783 77.5 47.9453ZM77 51.0668H81.3636V51.7145H80.7045V51.7599C80.9205 51.8395 81.0956 51.9834 81.2301 52.1918C81.3646 52.4001 81.4318 52.6349 81.4318 52.8963C81.4318 52.9455 81.4309 53.0071 81.429 53.081C81.4271 53.1548 81.4242 53.2107 81.4205 53.2486H80.7386C80.7443 53.2259 80.7528 53.1738 80.7642 53.0923C80.7775 53.0128 80.7841 52.9285 80.7841 52.8395C80.7841 52.6274 80.7396 52.438 80.6506 52.2713C80.5634 52.1065 80.4422 51.9759 80.2869 51.8793C80.1335 51.7846 79.9583 51.7372 79.7614 51.7372H77V51.0668ZM77 54.1342H82.8182V54.8047H80.6705V54.8615C80.7462 54.9107 80.8428 54.9789 80.9602 55.0661C81.0795 55.1551 81.1856 55.282 81.2784 55.4467C81.3731 55.6134 81.4205 55.8388 81.4205 56.1229C81.4205 56.4903 81.3286 56.8142 81.1449 57.0945C80.9612 57.3748 80.7008 57.5935 80.3636 57.7507C80.0265 57.9079 79.6288 57.9865 79.1705 57.9865C78.7083 57.9865 78.3078 57.9079 77.9688 57.7507C77.6316 57.5935 77.3703 57.3757 77.1847 57.0973C77.0009 56.8189 76.9091 56.4979 76.9091 56.1342C76.9091 55.8539 76.9555 55.6295 77.0483 55.4609C77.143 55.2924 77.25 55.1626 77.3693 55.0717C77.4905 54.9808 77.5909 54.9107 77.6705 54.8615V54.782H77V54.1342ZM79.1818 54.7933C78.8523 54.7933 78.5616 54.8416 78.3097 54.9382C78.0597 55.0348 77.8636 55.1759 77.7216 55.3615C77.5814 55.5471 77.5114 55.7744 77.5114 56.0433C77.5114 56.3236 77.5852 56.5575 77.733 56.745C77.8826 56.9344 78.0833 57.0765 78.3352 57.1712C78.589 57.2678 78.8712 57.3161 79.1818 57.3161C79.4886 57.3161 79.7652 57.2687 80.0114 57.174C80.2595 57.0812 80.4555 56.9401 80.5994 56.7507C80.7453 56.5632 80.8182 56.3274 80.8182 56.0433C80.8182 55.7706 80.7491 55.5414 80.6108 55.3558C80.4744 55.1702 80.2831 55.0301 80.0369 54.9354C79.7926 54.8407 79.5076 54.7933 79.1818 54.7933ZM76.8977 60.2962C76.8977 60.0196 76.9498 59.7687 77.054 59.5433C77.16 59.3179 77.3125 59.139 77.5114 59.0064C77.7121 58.8738 77.9545 58.8075 78.2386 58.8075C78.4886 58.8075 78.6913 58.8568 78.8466 58.9553C79.0038 59.0537 79.1269 59.1854 79.2159 59.3501C79.3049 59.5149 79.3712 59.6967 79.4148 59.8956C79.4602 60.0964 79.4962 60.2981 79.5227 60.5007C79.5568 60.7659 79.5824 60.9808 79.5994 61.1456C79.6184 61.3123 79.6496 61.4335 79.6932 61.5092C79.7367 61.5869 79.8125 61.6257 79.9205 61.6257H79.9432C80.2235 61.6257 80.4413 61.549 80.5966 61.3956C80.7519 61.2441 80.8295 61.014 80.8295 60.7053C80.8295 60.3852 80.7595 60.1342 80.6193 59.9524C80.4792 59.7706 80.3295 59.6428 80.1705 59.5689L80.3977 58.9325C80.6629 59.0462 80.8693 59.1977 81.017 59.3871C81.1667 59.5784 81.2708 59.7867 81.3295 60.0121C81.3902 60.2393 81.4205 60.4628 81.4205 60.6825C81.4205 60.8227 81.4034 60.9837 81.3693 61.1655C81.3371 61.3492 81.2699 61.5263 81.1676 61.6967C81.0653 61.8691 80.911 62.0121 80.7045 62.1257C80.4981 62.2393 80.2216 62.2962 79.875 62.2962H77V61.6257H77.5909V61.5916C77.4962 61.5462 77.3949 61.4704 77.2869 61.3643C77.179 61.2583 77.0871 61.1172 77.0114 60.9411C76.9356 60.7649 76.8977 60.55 76.8977 60.2962ZM77.5 60.3984C77.5 60.6636 77.5521 60.8871 77.6562 61.0689C77.7604 61.2526 77.8949 61.3909 78.0597 61.4837C78.2244 61.5784 78.3977 61.6257 78.5795 61.6257H79.1932C79.1591 61.5973 79.1278 61.5348 79.0994 61.4382C79.0729 61.3435 79.0492 61.2337 79.0284 61.1087C79.0095 60.9856 78.9924 60.8653 78.9773 60.7479C78.964 60.6323 78.9527 60.5386 78.9432 60.4666C78.9205 60.2924 78.8835 60.1295 78.8324 59.978C78.7831 59.8284 78.7083 59.7071 78.608 59.6143C78.5095 59.5234 78.375 59.478 78.2045 59.478C77.9716 59.478 77.7955 59.5642 77.6761 59.7365C77.5587 59.9107 77.5 60.1314 77.5 60.3984ZM75.2727 65.2812C75.2727 64.9574 75.3144 64.679 75.3977 64.446C75.4792 64.2131 75.5871 64.0189 75.7216 63.8636C75.8542 63.7102 75.9962 63.5881 76.1477 63.4972L76.5227 64.0312C76.4432 64.0919 76.3523 64.1686 76.25 64.2614C76.1458 64.3542 76.0559 64.4811 75.9801 64.642C75.9025 64.8049 75.8636 65.018 75.8636 65.2812C75.8636 65.6335 75.9489 65.9242 76.1193 66.1534C76.2898 66.3826 76.5568 66.4972 76.9205 66.4972H77.8068V66.4403C77.7273 66.3911 77.6288 66.321 77.5114 66.2301C77.3958 66.1411 77.2926 66.0123 77.2017 65.8438C77.1127 65.6771 77.0682 65.4517 77.0682 65.1676C77.0682 64.8153 77.1515 64.4991 77.3182 64.2188C77.4848 63.9403 77.7273 63.7197 78.0455 63.5568C78.3636 63.3958 78.75 63.3153 79.2045 63.3153C79.6515 63.3153 80.0407 63.3939 80.3722 63.5511C80.7055 63.7083 80.9631 63.9271 81.1449 64.2074C81.3286 64.4877 81.4205 64.8116 81.4205 65.179C81.4205 65.4631 81.3731 65.6884 81.2784 65.8551C81.1856 66.0237 81.0795 66.1525 80.9602 66.2415C80.8428 66.3324 80.7462 66.4025 80.6705 66.4517V66.5199H81.3636V67.1676H76.875C76.5 67.1676 76.1951 67.0824 75.9602 66.9119C75.7235 66.7434 75.5502 66.5161 75.4403 66.2301C75.3286 65.946 75.2727 65.6297 75.2727 65.2812ZM77.6705 65.2585C77.6705 65.5275 77.732 65.7547 77.8551 65.9403C77.9782 66.1259 78.1553 66.267 78.3864 66.3636C78.6174 66.4602 78.8939 66.5085 79.2159 66.5085C79.5303 66.5085 79.8078 66.4612 80.0483 66.3665C80.2888 66.2718 80.4773 66.1316 80.6136 65.946C80.75 65.7604 80.8182 65.5313 80.8182 65.2585C80.8182 64.9744 80.7462 64.7377 80.6023 64.5483C80.4583 64.3608 80.2652 64.2197 80.0227 64.125C79.7803 64.0322 79.5114 63.9858 79.2159 63.9858C78.9129 63.9858 78.6449 64.0331 78.4119 64.1278C78.1809 64.2244 77.9991 64.3665 77.8665 64.554C77.7358 64.7434 77.6705 64.9782 77.6705 65.2585ZM76.9091 70.2244C76.9091 69.804 77.0019 69.4413 77.1875 69.1364C77.375 68.8333 77.6364 68.5994 77.9716 68.4347C78.3087 68.2718 78.7008 68.1903 79.1477 68.1903C79.5947 68.1903 79.9886 68.2718 80.3295 68.4347C80.6723 68.5994 80.9394 68.8286 81.1307 69.1222C81.3239 69.4176 81.4205 69.7623 81.4205 70.1562C81.4205 70.3835 81.3826 70.608 81.3068 70.8295C81.2311 71.0511 81.108 71.2528 80.9375 71.4347C80.7689 71.6165 80.5455 71.7614 80.267 71.8693C79.9886 71.9773 79.6458 72.0312 79.2386 72.0312H78.9545V68.6676H79.5341V71.3494C79.7803 71.3494 80 71.3002 80.1932 71.2017C80.3864 71.1051 80.5388 70.9669 80.6506 70.7869C80.7623 70.6089 80.8182 70.3987 80.8182 70.1562C80.8182 69.8892 80.7519 69.6581 80.6193 69.4631C80.4886 69.2699 80.3182 69.1212 80.108 69.017C79.8977 68.9129 79.6723 68.8608 79.4318 68.8608H79.0455C78.7159 68.8608 78.4366 68.9176 78.2074 69.0312C77.9801 69.1468 77.8068 69.3068 77.6875 69.5114C77.5701 69.7159 77.5114 69.9536 77.5114 70.2244C77.5114 70.4006 77.536 70.5597 77.5852 70.7017C77.6364 70.8456 77.7121 70.9697 77.8125 71.0739C77.9148 71.178 78.0417 71.2585 78.1932 71.3153L78.0114 71.9631C77.7917 71.8949 77.5985 71.7803 77.4318 71.6193C77.267 71.4583 77.1383 71.2595 77.0455 71.0227C76.9545 70.786 76.9091 70.5199 76.9091 70.2244Z" fill="white"/>
<mask id="path-7-inside-1_34_2" fill="white">
<path d="M72 43.5C72 41.7761 71.3152 40.1228 70.0962 38.9038C68.8772 37.6848 67.2239 37 65.5 37C63.7761 37 62.1228 37.6848 60.9038 38.9038C59.6848 40.1228 59 41.7761 59 43.5L65.5 43.5H72Z"/>
</mask>
<path d="M72 43.5C72 41.7761 71.3152 40.1228 70.0962 38.9038C68.8772 37.6848 67.2239 37 65.5 37C63.7761 37 62.1228 37.6848 60.9038 38.9038C59.6848 40.1228 59 41.7761 59 43.5L65.5 43.5H72Z" stroke="black" stroke-width="2" mask="url(#path-7-inside-1_34_2)"/>
<rect x="35" y="63" width="33" height="1" fill="#00FFF0"/>
<rect x="32" y="52" width="33" height="1" fill="#D36D0F"/>
<path d="M28.29 75.0378C28.2691 72.3997 30.4018 70.25 33.0399 70.25H36C38.6234 70.25 40.75 72.3766 40.75 75C40.75 77.6234 38.6234 79.75 36 79.75H33.0399C30.4313 79.75 28.3108 77.6463 28.29 75.0378Z" fill="black" stroke="white" stroke-width="0.5"/>
<path d="M37.29 85.0378C37.2691 82.3997 39.4018 80.25 42.0399 80.25H45C47.6234 80.25 49.75 82.3766 49.75 85C49.75 87.6234 47.6234 89.75 45 89.75H42.0399C39.4313 89.75 37.3108 87.6463 37.29 85.0378Z" fill="black" stroke="white" stroke-width="0.5"/>
<path d="M49.2869 92.0348C49.2676 89.3979 51.3998 87.25 54.0368 87.25H56C58.6234 87.25 60.75 89.3766 60.75 92C60.75 94.6234 58.6234 96.75 56 96.75H54.0368C51.4271 96.75 49.3061 94.6445 49.2869 92.0348Z" fill="black" stroke="white" stroke-width="0.5"/>
<path d="M22.29 64.0378C22.2691 61.3997 24.4018 59.25 27.0399 59.25H30C32.6234 59.25 34.75 61.3766 34.75 64C34.75 66.6234 32.6234 68.75 30 68.75H27.0399C24.4313 68.75 22.3108 66.6463 22.29 64.0378Z" fill="black" stroke="white" stroke-width="0.5"/>
<path d="M56.3056 64.0523C56.2765 61.4086 58.4115 59.25 61.0553 59.25H69C71.6234 59.25 73.75 61.3766 73.75 64C73.75 66.6234 71.6234 68.75 69 68.75H61.0553C58.4524 68.75 56.3343 66.6551 56.3056 64.0523Z" fill="black" stroke="white" stroke-width="0.5"/>
<path d="M19.29 52.0378C19.2691 49.3997 21.4018 47.25 24.0399 47.25H27C29.6234 47.25 31.75 49.3766 31.75 52C31.75 54.6234 29.6234 56.75 27 56.75H24.0399C21.4313 56.75 19.3108 54.6463 19.29 52.0378Z" fill="black" stroke="white" stroke-width="0.5"/>
<path d="M56.3056 52.0523C56.2765 49.4086 58.4115 47.25 61.0553 47.25H69C71.6234 47.25 73.75 49.3766 73.75 52C73.75 54.6234 71.6234 56.75 69 56.75H61.0553C58.4524 56.75 56.3343 54.6551 56.3056 52.0523Z" fill="black" stroke="white" stroke-width="0.5"/>
<path d="M20.29 40.0378C20.2691 37.3997 22.4018 35.25 25.0399 35.25H28C30.6234 35.25 32.75 37.3766 32.75 40C32.75 42.6234 30.6234 44.75 28 44.75H25.0399C22.4313 44.75 20.3108 42.6463 20.29 40.0378Z" fill="black" stroke="white" stroke-width="0.5"/>
<path d="M25.29 29.0378C25.2691 26.3997 27.4018 24.25 30.0399 24.25H33C35.6234 24.25 37.75 26.3766 37.75 29C37.75 31.6234 35.6234 33.75 33 33.75H30.0399C27.4313 33.75 25.3108 31.6463 25.29 29.0378Z" fill="black" stroke="white" stroke-width="0.5"/>
<path d="M32.29 19.0378C32.2691 16.3997 34.4018 14.25 37.0399 14.25H40C42.6234 14.25 44.75 16.3766 44.75 19C44.75 21.6234 42.6234 23.75 40 23.75H37.0399C34.4313 23.75 32.3108 21.6463 32.29 19.0378Z" fill="black" stroke="white" stroke-width="0.5"/>
<path d="M44.29 11.0378C44.2691 8.39973 46.4018 6.25 49.0399 6.25H52C54.6234 6.25 56.75 8.37665 56.75 11C56.75 13.6234 54.6234 15.75 52 15.75H49.0399C46.4313 15.75 44.3108 13.6463 44.29 11.0378Z" fill="black" stroke="white" stroke-width="0.5"/>
<path d="M22.2384 41V39.0314H22.9266C23.0637 39.0314 23.1768 39.0552 23.2659 39.1026C23.355 39.1494 23.4213 39.2125 23.4649 39.2919C23.5085 39.3707 23.5302 39.4582 23.5302 39.5543C23.5302 39.6389 23.5152 39.7088 23.4851 39.7639C23.4556 39.819 23.4165 39.8626 23.3678 39.8946C23.3197 39.9266 23.2675 39.9504 23.2111 39.9657V39.985C23.2714 39.9888 23.3319 40.01 23.3928 40.0484C23.4537 40.0869 23.5046 40.142 23.5456 40.2137C23.5866 40.2855 23.6071 40.3733 23.6071 40.4771C23.6071 40.5758 23.5847 40.6645 23.5399 40.7434C23.495 40.8222 23.4242 40.8847 23.3274 40.9308C23.2307 40.9769 23.1048 41 22.9497 41H22.2384ZM22.4768 40.7885H22.9497C23.1054 40.7885 23.2159 40.7584 23.2813 40.6982C23.3473 40.6373 23.3803 40.5636 23.3803 40.4771C23.3803 40.4105 23.3633 40.3489 23.3294 40.2925C23.2954 40.2355 23.247 40.19 23.1842 40.1561C23.1214 40.1215 23.0471 40.1042 22.9612 40.1042H22.4768V40.7885ZM22.4768 39.8965H22.9189C22.9907 39.8965 23.0554 39.8824 23.1131 39.8542C23.1714 39.826 23.2175 39.7863 23.2515 39.735C23.2861 39.6838 23.3034 39.6235 23.3034 39.5543C23.3034 39.4678 23.2733 39.3945 23.213 39.3342C23.1528 39.2733 23.0573 39.2429 22.9266 39.2429H22.4768V39.8965ZM24.4025 41.0346C24.309 41.0346 24.2241 41.017 24.1478 40.9817C24.0716 40.9459 24.011 40.8943 23.9662 40.827C23.9213 40.7591 23.8989 40.677 23.8989 40.5809C23.8989 40.4963 23.9155 40.4278 23.9489 40.3752C23.9822 40.322 24.0267 40.2804 24.0825 40.2503C24.1382 40.2201 24.1997 40.1977 24.267 40.183C24.3349 40.1676 24.4032 40.1554 24.4718 40.1464C24.5615 40.1349 24.6342 40.1263 24.6899 40.1205C24.7463 40.1141 24.7873 40.1035 24.813 40.0888C24.8393 40.074 24.8524 40.0484 24.8524 40.0119V40.0042C24.8524 39.9093 24.8264 39.8357 24.7745 39.7831C24.7233 39.7306 24.6454 39.7043 24.541 39.7043C24.4327 39.7043 24.3478 39.728 24.2862 39.7754C24.2247 39.8228 24.1815 39.8735 24.1565 39.9273L23.9412 39.8504C23.9796 39.7607 24.0309 39.6908 24.095 39.6408C24.1597 39.5902 24.2302 39.555 24.3064 39.5351C24.3833 39.5146 24.4589 39.5044 24.5333 39.5044C24.5807 39.5044 24.6352 39.5101 24.6967 39.5217C24.7588 39.5326 24.8187 39.5553 24.8764 39.5899C24.9347 39.6245 24.9831 39.6767 25.0216 39.7466C25.06 39.8164 25.0792 39.91 25.0792 40.0273V41H24.8524V40.8001H24.8409C24.8255 40.8321 24.7998 40.8664 24.764 40.9029C24.7281 40.9394 24.6803 40.9705 24.6207 40.9962C24.5611 41.0218 24.4884 41.0346 24.4025 41.0346ZM24.4371 40.8308C24.5269 40.8308 24.6025 40.8132 24.664 40.778C24.7262 40.7427 24.7729 40.6972 24.8043 40.6415C24.8364 40.5857 24.8524 40.5271 24.8524 40.4656V40.2579C24.8428 40.2695 24.8216 40.2801 24.789 40.2897C24.7569 40.2986 24.7197 40.3066 24.6775 40.3137C24.6358 40.3201 24.5951 40.3259 24.5554 40.331C24.5163 40.3355 24.4846 40.3393 24.4602 40.3425C24.4013 40.3502 24.3462 40.3627 24.2949 40.38C24.2443 40.3967 24.2033 40.422 24.1719 40.456C24.1411 40.4893 24.1257 40.5348 24.1257 40.5924C24.1257 40.6713 24.1549 40.7309 24.2132 40.7712C24.2721 40.811 24.3468 40.8308 24.4371 40.8308ZM25.7201 40.1118V41H25.4933V39.5236H25.7124V39.7543H25.7317C25.7663 39.6793 25.8188 39.6191 25.8893 39.5736C25.9598 39.5274 26.0508 39.5044 26.1623 39.5044C26.2622 39.5044 26.3497 39.5249 26.4247 39.5659C26.4997 39.6062 26.558 39.6678 26.5996 39.7504C26.6413 39.8325 26.6621 39.9363 26.6621 40.0619V41H26.4353V40.0772C26.4353 39.9613 26.4051 39.8709 26.3449 39.8062C26.2847 39.7408 26.202 39.7081 26.0969 39.7081C26.0245 39.7081 25.9598 39.7238 25.9028 39.7552C25.8464 39.7866 25.8018 39.8325 25.7691 39.8927C25.7365 39.9529 25.7201 40.026 25.7201 40.1118ZM27.5111 41.0346C27.4175 41.0346 27.3326 41.017 27.2564 40.9817C27.1801 40.9459 27.1196 40.8943 27.0747 40.827C27.0299 40.7591 27.0074 40.677 27.0074 40.5809C27.0074 40.4963 27.0241 40.4278 27.0574 40.3752C27.0907 40.322 27.1353 40.2804 27.191 40.2503C27.2468 40.2201 27.3083 40.1977 27.3756 40.183C27.4435 40.1676 27.5117 40.1554 27.5803 40.1464C27.67 40.1349 27.7427 40.1263 27.7985 40.1205C27.8549 40.1141 27.8959 40.1035 27.9215 40.0888C27.9478 40.074 27.9609 40.0484 27.9609 40.0119V40.0042C27.9609 39.9093 27.935 39.8357 27.8831 39.7831C27.8318 39.7306 27.754 39.7043 27.6495 39.7043C27.5412 39.7043 27.4563 39.728 27.3948 39.7754C27.3333 39.8228 27.29 39.8735 27.265 39.9273L27.0497 39.8504C27.0882 39.7607 27.1394 39.6908 27.2035 39.6408C27.2682 39.5902 27.3387 39.555 27.415 39.5351C27.4919 39.5146 27.5675 39.5044 27.6418 39.5044C27.6892 39.5044 27.7437 39.5101 27.8052 39.5217C27.8674 39.5326 27.9273 39.5553 27.985 39.5899C28.0433 39.6245 28.0917 39.6767 28.1301 39.7466C28.1686 39.8164 28.1878 39.91 28.1878 40.0273V41H27.9609V40.8001H27.9494C27.934 40.8321 27.9084 40.8664 27.8725 40.9029C27.8366 40.9394 27.7889 40.9705 27.7293 40.9962C27.6697 41.0218 27.597 41.0346 27.5111 41.0346ZM27.5457 40.8308C27.6354 40.8308 27.711 40.8132 27.7725 40.778C27.8347 40.7427 27.8815 40.6972 27.9129 40.6415C27.9449 40.5857 27.9609 40.5271 27.9609 40.4656V40.2579C27.9513 40.2695 27.9302 40.2801 27.8975 40.2897C27.8655 40.2986 27.8283 40.3066 27.786 40.3137C27.7444 40.3201 27.7037 40.3259 27.6639 40.331C27.6248 40.3355 27.5931 40.3393 27.5688 40.3425C27.5098 40.3502 27.4547 40.3627 27.4034 40.38C27.3528 40.3967 27.3118 40.422 27.2804 40.456C27.2496 40.4893 27.2343 40.5348 27.2343 40.5924C27.2343 40.6713 27.2634 40.7309 27.3217 40.7712C27.3807 40.811 27.4553 40.8308 27.5457 40.8308ZM28.8287 40.1118V41H28.6018V39.5236H28.821V39.7543H28.8402C28.8748 39.6793 28.9274 39.6191 28.9978 39.5736C29.0683 39.5274 29.1593 39.5044 29.2708 39.5044C29.3708 39.5044 29.4583 39.5249 29.5332 39.5659C29.6082 39.6062 29.6665 39.6678 29.7082 39.7504C29.7498 39.8325 29.7707 39.9363 29.7707 40.0619V41H29.5438V40.0772C29.5438 39.9613 29.5137 39.8709 29.4535 39.8062C29.3932 39.7408 29.3106 39.7081 29.2055 39.7081C29.1331 39.7081 29.0683 39.7238 29.0113 39.7552C28.9549 39.7866 28.9104 39.8325 28.8777 39.8927C28.845 39.9529 28.8287 40.026 28.8287 40.1118ZM30.6196 41.0346C30.5261 41.0346 30.4412 41.017 30.3649 40.9817C30.2887 40.9459 30.2281 40.8943 30.1833 40.827C30.1384 40.7591 30.116 40.677 30.116 40.5809C30.116 40.4963 30.1326 40.4278 30.166 40.3752C30.1993 40.322 30.2438 40.2804 30.2996 40.2503C30.3553 40.2201 30.4168 40.1977 30.4841 40.183C30.552 40.1676 30.6203 40.1554 30.6889 40.1464C30.7786 40.1349 30.8513 40.1263 30.9071 40.1205C30.9634 40.1141 31.0045 40.1035 31.0301 40.0888C31.0564 40.074 31.0695 40.0484 31.0695 40.0119V40.0042C31.0695 39.9093 31.0435 39.8357 30.9916 39.7831C30.9404 39.7306 30.8625 39.7043 30.7581 39.7043C30.6498 39.7043 30.5649 39.728 30.5033 39.7754C30.4418 39.8228 30.3986 39.8735 30.3736 39.9273L30.1583 39.8504C30.1967 39.7607 30.248 39.6908 30.3121 39.6408C30.3768 39.5902 30.4473 39.555 30.5235 39.5351C30.6004 39.5146 30.676 39.5044 30.7504 39.5044C30.7978 39.5044 30.8523 39.5101 30.9138 39.5217C30.9759 39.5326 31.0359 39.5553 31.0935 39.5899C31.1518 39.6245 31.2002 39.6767 31.2387 39.7466C31.2771 39.8164 31.2963 39.91 31.2963 40.0273V41H31.0695V40.8001H31.058C31.0426 40.8321 31.0169 40.8664 30.9811 40.9029C30.9452 40.9394 30.8974 40.9705 30.8378 40.9962C30.7782 41.0218 30.7055 41.0346 30.6196 41.0346ZM30.6543 40.8308C30.744 40.8308 30.8196 40.8132 30.8811 40.778C30.9433 40.7427 30.99 40.6972 31.0214 40.6415C31.0535 40.5857 31.0695 40.5271 31.0695 40.4656V40.2579C31.0599 40.2695 31.0387 40.2801 31.0061 40.2897C30.974 40.2986 30.9368 40.3066 30.8946 40.3137C30.8529 40.3201 30.8122 40.3259 30.7725 40.331C30.7334 40.3355 30.7017 40.3393 30.6773 40.3425C30.6184 40.3502 30.5633 40.3627 30.512 40.38C30.4614 40.3967 30.4204 40.422 30.389 40.456C30.3582 40.4893 30.3428 40.5348 30.3428 40.5924C30.3428 40.6713 30.372 40.7309 30.4303 40.7712C30.4892 40.811 30.5639 40.8308 30.6543 40.8308Z" fill="white"/>
<path d="M28.3191 30H28.0692L28.792 28.0314H29.0381L29.7609 30H29.511L28.9228 28.3429H28.9074L28.3191 30ZM28.4114 29.231H29.4187V29.4425H28.4114V29.231ZM31.0826 28.8542L30.8788 28.9119C30.866 28.8779 30.8471 28.8449 30.8221 28.8129C30.7978 28.7802 30.7644 28.7533 30.7221 28.7322C30.6799 28.711 30.6257 28.7004 30.5597 28.7004C30.4693 28.7004 30.3941 28.7213 30.3338 28.7629C30.2742 28.8039 30.2444 28.8562 30.2444 28.9196C30.2444 28.976 30.2649 29.0205 30.3059 29.0532C30.347 29.0859 30.411 29.1131 30.4982 29.1349L30.7173 29.1887C30.8493 29.2208 30.9477 29.2698 31.0124 29.3358C31.0772 29.4012 31.1095 29.4854 31.1095 29.5886C31.1095 29.6732 31.0852 29.7488 31.0365 29.8154C30.9884 29.8821 30.9211 29.9346 30.8346 29.9731C30.7481 30.0115 30.6475 30.0308 30.5328 30.0308C30.3822 30.0308 30.2576 29.9981 30.1589 29.9327C30.0602 29.8674 29.9977 29.7719 29.9714 29.6463L30.1868 29.5924C30.2073 29.6719 30.246 29.7315 30.3031 29.7712C30.3607 29.811 30.436 29.8308 30.5289 29.8308C30.6347 29.8308 30.7186 29.8084 30.7808 29.7635C30.8436 29.718 30.875 29.6636 30.875 29.6001C30.875 29.5489 30.857 29.5059 30.8212 29.4713C30.7853 29.4361 30.7302 29.4098 30.6558 29.3925L30.4098 29.3348C30.2745 29.3028 30.1752 29.2531 30.1118 29.1859C30.049 29.1179 30.0176 29.033 30.0176 28.9311C30.0176 28.8478 30.041 28.7741 30.0877 28.7101C30.1352 28.646 30.1996 28.5957 30.281 28.5591C30.363 28.5226 30.4559 28.5044 30.5597 28.5044C30.7058 28.5044 30.8205 28.5364 30.9038 28.6005C30.9878 28.6646 31.0474 28.7491 31.0826 28.8542ZM31.6778 29.1118V30H31.451V28.0314H31.6778V28.7543H31.6971C31.7317 28.678 31.7836 28.6175 31.8528 28.5726C31.9226 28.5271 32.0155 28.5044 32.1315 28.5044C32.2321 28.5044 32.3202 28.5245 32.3959 28.5649C32.4715 28.6046 32.5301 28.6658 32.5718 28.7485C32.614 28.8305 32.6352 28.935 32.6352 29.0619V30H32.4083V29.0772C32.4083 28.96 32.3779 28.8693 32.317 28.8052C32.2568 28.7405 32.1732 28.7081 32.0662 28.7081C31.9918 28.7081 31.9252 28.7238 31.8662 28.7552C31.8079 28.7866 31.7618 28.8325 31.7278 28.8927C31.6945 28.9529 31.6778 29.026 31.6778 29.1118Z" fill="white"/>
<path d="M34.3149 18.5236C34.3034 18.4262 34.2566 18.3506 34.1746 18.2967C34.0926 18.2429 33.992 18.216 33.8728 18.216C33.7856 18.216 33.7094 18.2301 33.644 18.2583C33.5793 18.2865 33.5287 18.3253 33.4921 18.3746C33.4563 18.4239 33.4383 18.48 33.4383 18.5428C33.4383 18.5954 33.4508 18.6405 33.4758 18.6783C33.5014 18.7155 33.5341 18.7466 33.5738 18.7716C33.6136 18.7959 33.6552 18.8161 33.6988 18.8321C33.7424 18.8475 33.7824 18.86 33.819 18.8696L34.0189 18.9234C34.0701 18.9369 34.1272 18.9555 34.19 18.9792C34.2534 19.0029 34.314 19.0353 34.3716 19.0763C34.43 19.1166 34.478 19.1686 34.5158 19.232C34.5536 19.2954 34.5725 19.3733 34.5725 19.4656C34.5725 19.5719 34.5447 19.6681 34.4889 19.7539C34.4338 19.8398 34.3531 19.908 34.2467 19.9587C34.141 20.0093 34.0125 20.0346 33.8612 20.0346C33.7203 20.0346 33.5982 20.0119 33.495 19.9664C33.3925 19.9209 33.3118 19.8574 33.2528 19.776C33.1945 19.6947 33.1615 19.6001 33.1538 19.4925H33.3999C33.4063 19.5668 33.4313 19.6283 33.4748 19.677C33.5191 19.7251 33.5748 19.761 33.6421 19.7847C33.71 19.8078 33.7831 19.8193 33.8612 19.8193C33.9522 19.8193 34.0339 19.8046 34.1064 19.7751C34.1788 19.745 34.2361 19.7033 34.2784 19.6501C34.3207 19.5963 34.3418 19.5335 34.3418 19.4617C34.3418 19.3964 34.3236 19.3432 34.2871 19.3022C34.2505 19.2611 34.2025 19.2278 34.1429 19.2022C34.0833 19.1766 34.0189 19.1541 33.9497 19.1349L33.7075 19.0657C33.5537 19.0215 33.4319 18.9584 33.3422 18.8763C33.2525 18.7943 33.2076 18.687 33.2076 18.5543C33.2076 18.4441 33.2374 18.348 33.297 18.266C33.3572 18.1833 33.438 18.1192 33.5392 18.0737C33.6411 18.0276 33.7549 18.0045 33.8805 18.0045C34.0073 18.0045 34.1201 18.0273 34.2188 18.0728C34.3175 18.1176 34.3957 18.1791 34.4533 18.2573C34.5117 18.3355 34.5424 18.4243 34.5456 18.5236H34.3149ZM35.1606 19.1118V20H34.9337V18.0314H35.1606V18.7543H35.1798C35.2144 18.678 35.2663 18.6175 35.3355 18.5726C35.4053 18.5271 35.4983 18.5044 35.6143 18.5044C35.7149 18.5044 35.803 18.5245 35.8786 18.5649C35.9542 18.6046 36.0128 18.6658 36.0545 18.7485C36.0968 18.8305 36.1179 18.935 36.1179 19.0619V20H35.8911V19.0772C35.8911 18.96 35.8606 18.8693 35.7998 18.8052C35.7395 18.7405 35.6559 18.7081 35.5489 18.7081C35.4746 18.7081 35.4079 18.7238 35.349 18.7552C35.2906 18.7866 35.2445 18.8325 35.2105 18.8927C35.1772 18.9529 35.1606 19.026 35.1606 19.1118ZM36.5329 20V18.5236H36.7521V18.7466H36.7675C36.7944 18.6735 36.8431 18.6143 36.9136 18.5688C36.9841 18.5233 37.0635 18.5005 37.1519 18.5005C37.1686 18.5005 37.1894 18.5008 37.2144 18.5015C37.2394 18.5021 37.2583 18.5031 37.2711 18.5044V18.735C37.2634 18.7331 37.2458 18.7302 37.2183 18.7264C37.1914 18.7219 37.1628 18.7197 37.1327 18.7197C37.061 18.7197 36.9969 18.7347 36.9405 18.7648C36.8847 18.7943 36.8405 18.8353 36.8078 18.8879C36.7758 18.9398 36.7598 18.9991 36.7598 19.0657V20H36.5329ZM37.54 20V18.5236H37.7669V20H37.54ZM37.6554 18.2775C37.6112 18.2775 37.573 18.2625 37.541 18.2323C37.5096 18.2022 37.4939 18.166 37.4939 18.1237C37.4939 18.0814 37.5096 18.0452 37.541 18.0151C37.573 17.985 37.6112 17.9699 37.6554 17.9699C37.6996 17.9699 37.7374 17.985 37.7688 18.0151C37.8008 18.0452 37.8169 18.0814 37.8169 18.1237C37.8169 18.166 37.8008 18.2022 37.7688 18.2323C37.7374 18.2625 37.6996 18.2775 37.6554 18.2775ZM38.1824 20V18.5236H38.4015V18.7543H38.4207C38.4515 18.6755 38.5012 18.6143 38.5697 18.5707C38.6383 18.5265 38.7206 18.5044 38.8168 18.5044C38.9142 18.5044 38.9952 18.5265 39.0599 18.5707C39.1253 18.6143 39.1763 18.6755 39.2128 18.7543H39.2282C39.266 18.678 39.3227 18.6175 39.3983 18.5726C39.4739 18.5271 39.5646 18.5044 39.6703 18.5044C39.8023 18.5044 39.9103 18.5457 39.9942 18.6284C40.0782 18.7104 40.1202 18.8382 40.1202 19.0119V20H39.8933V19.0119C39.8933 18.9029 39.8635 18.8251 39.8039 18.7783C39.7443 18.7315 39.6742 18.7081 39.5934 18.7081C39.4896 18.7081 39.4092 18.7395 39.3522 18.8023C39.2951 18.8645 39.2666 18.9433 39.2666 19.0388V20H39.0359V18.9888C39.0359 18.9049 39.0087 18.8373 38.9542 18.786C38.8997 18.7341 38.8296 18.7081 38.7437 18.7081C38.6848 18.7081 38.6296 18.7238 38.5784 18.7552C38.5278 18.7866 38.4867 18.8302 38.4553 18.886C38.4246 18.9411 38.4092 19.0048 38.4092 19.0772V20H38.1824ZM40.5349 20.5537V18.5236H40.7541V18.7581H40.781C40.7977 18.7325 40.8207 18.6998 40.8502 18.6601C40.8803 18.6197 40.9233 18.5838 40.979 18.5524C41.0354 18.5204 41.1117 18.5044 41.2078 18.5044C41.3321 18.5044 41.4417 18.5354 41.5365 18.5976C41.6313 18.6598 41.7054 18.7479 41.7585 18.8619C41.8117 18.976 41.8383 19.1106 41.8383 19.2656C41.8383 19.422 41.8117 19.5575 41.7585 19.6722C41.7054 19.7863 41.6317 19.8747 41.5375 19.9375C41.4433 19.9997 41.3347 20.0308 41.2116 20.0308C41.1168 20.0308 41.0408 20.0151 40.9838 19.9837C40.9268 19.9516 40.8829 19.9154 40.8521 19.875C40.8214 19.834 40.7977 19.8001 40.781 19.7732H40.7618V20.5537H40.5349ZM40.7579 19.2618C40.7579 19.3733 40.7743 19.4717 40.8069 19.5569C40.8396 19.6415 40.8874 19.7078 40.9502 19.7559C41.013 19.8033 41.0899 19.827 41.1809 19.827C41.2757 19.827 41.3548 19.802 41.4183 19.752C41.4824 19.7014 41.5304 19.6335 41.5625 19.5482C41.5951 19.4624 41.6115 19.3669 41.6115 19.2618C41.6115 19.158 41.5955 19.0644 41.5634 18.9811C41.532 18.8972 41.4843 18.8308 41.4202 18.7821C41.3568 18.7328 41.277 18.7081 41.1809 18.7081C41.0886 18.7081 41.011 18.7315 40.9482 18.7783C40.8854 18.8244 40.838 18.8892 40.806 18.9725C40.7739 19.0551 40.7579 19.1516 40.7579 19.2618ZM43.2302 18.8542L43.0264 18.9119C43.0136 18.8779 42.9947 18.8449 42.9697 18.8129C42.9453 18.7802 42.912 18.7533 42.8697 18.7322C42.8274 18.711 42.7733 18.7004 42.7073 18.7004C42.6169 18.7004 42.5416 18.7213 42.4814 18.7629C42.4218 18.8039 42.392 18.8562 42.392 18.9196C42.392 18.976 42.4125 19.0205 42.4535 19.0532C42.4945 19.0859 42.5586 19.1131 42.6457 19.1349L42.8649 19.1887C42.9969 19.2208 43.0953 19.2698 43.16 19.3358C43.2247 19.4012 43.2571 19.4854 43.2571 19.5886C43.2571 19.6732 43.2327 19.7488 43.184 19.8154C43.136 19.8821 43.0687 19.9346 42.9822 19.9731C42.8957 20.0115 42.795 20.0308 42.6803 20.0308C42.5298 20.0308 42.4051 19.9981 42.3064 19.9327C42.2077 19.8674 42.1453 19.7719 42.119 19.6463L42.3343 19.5924C42.3548 19.6719 42.3936 19.7315 42.4506 19.7712C42.5083 19.811 42.5836 19.8308 42.6765 19.8308C42.7822 19.8308 42.8662 19.8084 42.9283 19.7635C42.9911 19.718 43.0225 19.6636 43.0225 19.6001C43.0225 19.5489 43.0046 19.5059 42.9687 19.4713C42.9328 19.4361 42.8777 19.4098 42.8034 19.3925L42.5573 19.3348C42.4221 19.3028 42.3228 19.2531 42.2593 19.1859C42.1965 19.1179 42.1651 19.033 42.1651 18.9311C42.1651 18.8478 42.1885 18.7741 42.2353 18.7101C42.2827 18.646 42.3471 18.5957 42.4285 18.5591C42.5105 18.5226 42.6034 18.5044 42.7073 18.5044C42.8534 18.5044 42.9681 18.5364 43.0514 18.6005C43.1353 18.6646 43.1949 18.7491 43.2302 18.8542Z" fill="white"/>
<path d="M46.2384 12V10.0314H47.4187V10.2429H46.4768V10.9081H47.3303V11.1195H46.4768V12H46.2384ZM48.0231 10.0314V12H47.7963V10.0314H48.0231ZM49.0384 12.0308C48.9051 12.0308 48.7881 11.999 48.6875 11.9356C48.5876 11.8722 48.5094 11.7834 48.453 11.6693C48.3973 11.5553 48.3694 11.422 48.3694 11.2695C48.3694 11.1157 48.3973 10.9814 48.453 10.8667C48.5094 10.752 48.5876 10.663 48.6875 10.5995C48.7881 10.5361 48.9051 10.5044 49.0384 10.5044C49.1717 10.5044 49.2883 10.5361 49.3883 10.5995C49.4889 10.663 49.567 10.752 49.6228 10.8667C49.6792 10.9814 49.7074 11.1157 49.7074 11.2695C49.7074 11.422 49.6792 11.5553 49.6228 11.6693C49.567 11.7834 49.4889 11.8722 49.3883 11.9356C49.2883 11.999 49.1717 12.0308 49.0384 12.0308ZM49.0384 11.827C49.1396 11.827 49.2229 11.801 49.2883 11.7491C49.3537 11.6972 49.402 11.629 49.4334 11.5444C49.4648 11.4598 49.4805 11.3682 49.4805 11.2695C49.4805 11.1708 49.4648 11.0788 49.4334 10.9936C49.402 10.9084 49.3537 10.8395 49.2883 10.787C49.2229 10.7344 49.1396 10.7081 49.0384 10.7081C48.9371 10.7081 48.8538 10.7344 48.7885 10.787C48.7231 10.8395 48.6747 10.9084 48.6433 10.9936C48.6119 11.0788 48.5962 11.1708 48.5962 11.2695C48.5962 11.3682 48.6119 11.4598 48.6433 11.5444C48.6747 11.629 48.7231 11.6972 48.7885 11.7491C48.8538 11.801 48.9371 11.827 49.0384 11.827ZM50.3379 12L49.8881 10.5236H50.1265L50.4456 11.654H50.461L50.7763 10.5236H51.0185L51.3299 11.6501H51.3453L51.6644 10.5236H51.9028L51.4529 12H51.2299L50.907 10.8658H50.8839L50.5609 12H50.3379ZM52.7715 12.0308C52.6292 12.0308 52.5065 11.9994 52.4033 11.9366C52.3008 11.8731 52.2217 11.7847 52.1659 11.6713C52.1108 11.5572 52.0833 11.4246 52.0833 11.2733C52.0833 11.1221 52.1108 10.9888 52.1659 10.8735C52.2217 10.7575 52.2992 10.6671 52.3985 10.6024C52.4985 10.537 52.6151 10.5044 52.7484 10.5044C52.8253 10.5044 52.9012 10.5172 52.9762 10.5428C53.0512 10.5684 53.1194 10.6101 53.181 10.6678C53.2425 10.7248 53.2915 10.8004 53.328 10.8946C53.3645 10.9888 53.3828 11.1048 53.3828 11.2426V11.3387H52.2447V11.1426H53.1521C53.1521 11.0593 53.1355 10.985 53.1021 10.9196C53.0695 10.8542 53.0227 10.8027 52.9618 10.7648C52.9016 10.727 52.8304 10.7081 52.7484 10.7081C52.6581 10.7081 52.5799 10.7306 52.5139 10.7754C52.4485 10.8196 52.3982 10.8773 52.363 10.9484C52.3277 11.0196 52.3101 11.0958 52.3101 11.1772V11.3079C52.3101 11.4194 52.3293 11.5139 52.3678 11.5915C52.4069 11.6684 52.461 11.727 52.5302 11.7674C52.5994 11.8071 52.6798 11.827 52.7715 11.827C52.8311 11.827 52.8849 11.8187 52.933 11.802C52.9817 11.7847 53.0236 11.7591 53.0589 11.7251C53.0941 11.6905 53.1214 11.6476 53.1406 11.5963L53.3597 11.6578C53.3367 11.7321 53.2979 11.7975 53.2434 11.8539C53.189 11.9096 53.1217 11.9532 53.0416 11.9846C52.9615 12.0154 52.8714 12.0308 52.7715 12.0308ZM53.7279 12V10.5236H53.947V10.7466H53.9624C53.9893 10.6735 54.038 10.6143 54.1085 10.5688C54.179 10.5233 54.2585 10.5005 54.3469 10.5005C54.3636 10.5005 54.3844 10.5008 54.4094 10.5015C54.4344 10.5021 54.4533 10.5031 54.4661 10.5044V10.735C54.4584 10.7331 54.4408 10.7302 54.4132 10.7264C54.3863 10.7219 54.3578 10.7197 54.3277 10.7197C54.2559 10.7197 54.1918 10.7347 54.1354 10.7648C54.0797 10.7943 54.0355 10.8353 54.0028 10.8879C53.9708 10.9398 53.9547 10.9991 53.9547 11.0657V12H53.7279Z" fill="white"/>
<path d="M60.3337 53V50.244H61.9862V50.5401H60.6675V51.4713H61.8624V51.7673H60.6675V53H60.3337ZM63.2028 53.0431C63.0161 53.0431 62.8524 52.9987 62.7116 52.9098C62.5716 52.821 62.4622 52.6968 62.3832 52.5371C62.3052 52.3774 62.2661 52.1908 62.2661 51.9773C62.2661 51.762 62.3052 51.574 62.3832 51.4134C62.4622 51.2528 62.5716 51.1281 62.7116 51.0393C62.8524 50.9505 63.0161 50.9061 63.2028 50.9061C63.3894 50.9061 63.5526 50.9505 63.6926 51.0393C63.8334 51.1281 63.9429 51.2528 64.0209 51.4134C64.0999 51.574 64.1394 51.762 64.1394 51.9773C64.1394 52.1908 64.0999 52.3774 64.0209 52.5371C63.9429 52.6968 63.8334 52.821 63.6926 52.9098C63.5526 52.9987 63.3894 53.0431 63.2028 53.0431ZM63.2028 52.7578C63.3445 52.7578 63.4611 52.7214 63.5526 52.6488C63.6441 52.5761 63.7119 52.4806 63.7558 52.3621C63.7998 52.2437 63.8218 52.1154 63.8218 51.9773C63.8218 51.8391 63.7998 51.7104 63.7558 51.5911C63.7119 51.4717 63.6441 51.3753 63.5526 51.3017C63.4611 51.2282 63.3445 51.1914 63.2028 51.1914C63.061 51.1914 62.9444 51.2282 62.8529 51.3017C62.7614 51.3753 62.6936 51.4717 62.6497 51.5911C62.6057 51.7104 62.5837 51.8391 62.5837 51.9773C62.5837 52.1154 62.6057 52.2437 62.6497 52.3621C62.6936 52.4806 62.7614 52.5761 62.8529 52.6488C62.9444 52.7214 63.061 52.7578 63.2028 52.7578ZM65.4639 53.0431C65.2773 53.0431 65.1135 52.9987 64.9727 52.9098C64.8327 52.821 64.7233 52.6968 64.6443 52.5371C64.5663 52.3774 64.5273 52.1908 64.5273 51.9773C64.5273 51.762 64.5663 51.574 64.6443 51.4134C64.7233 51.2528 64.8327 51.1281 64.9727 51.0393C65.1135 50.9505 65.2773 50.9061 65.4639 50.9061C65.6505 50.9061 65.8137 50.9505 65.9537 51.0393C66.0945 51.1281 66.204 51.2528 66.282 51.4134C66.361 51.574 66.4005 51.762 66.4005 51.9773C66.4005 52.1908 66.361 52.3774 66.282 52.5371C66.204 52.6968 66.0945 52.821 65.9537 52.9098C65.8137 52.9987 65.6505 53.0431 65.4639 53.0431ZM65.4639 52.7578C65.6056 52.7578 65.7222 52.7214 65.8137 52.6488C65.9052 52.5761 65.973 52.4806 66.0169 52.3621C66.0609 52.2437 66.0829 52.1154 66.0829 51.9773C66.0829 51.8391 66.0609 51.7104 66.0169 51.5911C65.973 51.4717 65.9052 51.3753 65.8137 51.3017C65.7222 51.2282 65.6056 51.1914 65.4639 51.1914C65.3221 51.1914 65.2055 51.2282 65.114 51.3017C65.0225 51.3753 64.9547 51.4717 64.9108 51.5911C64.8668 51.7104 64.8448 51.8391 64.8448 51.9773C64.8448 52.1154 64.8668 52.2437 64.9108 52.3621C64.9547 52.4806 65.0225 52.5761 65.114 52.6488C65.2055 52.7214 65.3221 52.7578 65.4639 52.7578ZM67.6657 53.0431C67.4935 53.0431 67.3414 52.9996 67.2096 52.9125C67.0777 52.8246 66.9745 52.7008 66.9 52.5411C66.8256 52.3805 66.7884 52.1908 66.7884 51.9719C66.7884 51.7548 66.8256 51.5664 66.9 51.4067C66.9745 51.247 67.0781 51.1237 67.2109 51.0366C67.3437 50.9496 67.4971 50.9061 67.6711 50.9061C67.8057 50.9061 67.912 50.9285 67.9901 50.9734C68.069 51.0173 68.1291 51.0676 68.1704 51.1241C68.2125 51.1797 68.2453 51.2255 68.2686 51.2614H68.2955V50.244H68.6131V53H68.3063V52.6824H68.2686C68.2453 52.7201 68.2121 52.7676 68.169 52.8251C68.126 52.8816 68.0645 52.9323 67.9847 52.9771C67.9048 53.0211 67.7985 53.0431 67.6657 53.0431ZM67.7088 52.7578C67.8362 52.7578 67.9439 52.7246 68.0318 52.6582C68.1197 52.5909 68.1865 52.4981 68.2323 52.3796C68.278 52.2603 68.3009 52.1226 68.3009 51.9665C68.3009 51.8122 68.2785 51.6772 68.2336 51.5615C68.1888 51.4448 68.1224 51.3542 68.0345 51.2896C67.9465 51.2241 67.838 51.1914 67.7088 51.1914C67.5742 51.1914 67.4621 51.2259 67.3724 51.295C67.2836 51.3632 67.2167 51.456 67.1719 51.5736C67.1279 51.6902 67.1059 51.8212 67.1059 51.9665C67.1059 52.1136 67.1284 52.2473 67.1732 52.3675C67.219 52.4868 67.2863 52.5819 67.3751 52.6528C67.4648 52.7228 67.576 52.7578 67.7088 52.7578Z" fill="white"/>
<path d="M58.292 65V62.5885H59.1068C59.2952 62.5885 59.4499 62.6207 59.5708 62.6851C59.6916 62.7487 59.7811 62.8362 59.8392 62.9476C59.8973 63.0591 59.9264 63.1859 59.9264 63.328C59.9264 63.4701 59.8973 63.596 59.8392 63.7059C59.7811 63.8158 59.692 63.9022 59.5719 63.965C59.4518 64.027 59.2984 64.058 59.1115 64.058H58.4522V63.7943H59.1021C59.2309 63.7943 59.3345 63.7754 59.413 63.7377C59.4923 63.7001 59.5496 63.6467 59.5849 63.5776C59.621 63.5077 59.6391 63.4245 59.6391 63.328C59.6391 63.2314 59.621 63.147 59.5849 63.0748C59.5488 63.0026 59.4911 62.9469 59.4118 62.9076C59.3325 62.8676 59.2277 62.8476 59.0974 62.8476H58.584V65H58.292ZM59.4271 63.9167L60.0206 65H59.6814L59.0974 63.9167H59.4271ZM61.1141 65.0377C60.9399 65.0377 60.7896 64.9992 60.6632 64.9223C60.5376 64.8446 60.4406 64.7362 60.3723 64.5973C60.3048 64.4576 60.2711 64.2951 60.2711 64.1098C60.2711 63.9246 60.3048 63.7613 60.3723 63.62C60.4406 63.4779 60.5356 63.3672 60.6573 63.2879C60.7797 63.2079 60.9226 63.1678 61.0859 63.1678C61.1801 63.1678 61.2731 63.1835 61.3649 63.2149C61.4568 63.2463 61.5404 63.2974 61.6158 63.368C61.6911 63.4379 61.7512 63.5305 61.7959 63.6459C61.8407 63.7613 61.863 63.9034 61.863 64.0721V64.1899H60.4689V63.9497H61.5804C61.5804 63.8476 61.56 63.7566 61.5192 63.6765C61.4792 63.5964 61.4219 63.5332 61.3473 63.4869C61.2735 63.4406 61.1864 63.4175 61.0859 63.4175C60.9752 63.4175 60.8794 63.4449 60.7986 63.4999C60.7185 63.5541 60.6569 63.6247 60.6137 63.7118C60.5705 63.799 60.549 63.8924 60.549 63.9921V64.1522C60.549 64.2888 60.5725 64.4046 60.6196 64.4996C60.6675 64.5938 60.7338 64.6656 60.8186 64.715C60.9034 64.7637 61.0019 64.7881 61.1141 64.7881C61.1871 64.7881 61.2531 64.7778 61.312 64.7574C61.3716 64.7362 61.423 64.7048 61.4662 64.6632C61.5094 64.6209 61.5427 64.5683 61.5663 64.5055L61.8348 64.5808C61.8065 64.6719 61.759 64.7519 61.6923 64.821C61.6256 64.8893 61.5431 64.9427 61.445 64.9812C61.3469 65.0188 61.2366 65.0377 61.1141 65.0377ZM63.5668 63.5964L63.3172 63.6671C63.3015 63.6255 63.2784 63.5851 63.2477 63.5458C63.2179 63.5058 63.1771 63.4728 63.1253 63.4469C63.0735 63.421 63.0071 63.408 62.9263 63.408C62.8156 63.408 62.7234 63.4336 62.6496 63.4846C62.5766 63.5348 62.5401 63.5988 62.5401 63.6765C62.5401 63.7456 62.5652 63.8001 62.6154 63.8402C62.6657 63.8802 62.7442 63.9136 62.8509 63.9403L63.1194 64.0062C63.2811 64.0455 63.4016 64.1055 63.4809 64.1864C63.5602 64.2664 63.5998 64.3697 63.5998 64.496C63.5998 64.5997 63.57 64.6923 63.5103 64.7739C63.4514 64.8556 63.369 64.9199 63.2631 64.967C63.1571 65.0141 63.0338 65.0377 62.8933 65.0377C62.7088 65.0377 62.5562 64.9976 62.4353 64.9176C62.3144 64.8375 62.2379 64.7205 62.2057 64.5667L62.4694 64.5007C62.4945 64.5981 62.542 64.6711 62.6119 64.7198C62.6826 64.7684 62.7748 64.7928 62.8886 64.7928C63.0181 64.7928 63.121 64.7653 63.1971 64.7103C63.274 64.6546 63.3125 64.5879 63.3125 64.5102C63.3125 64.4474 63.2905 64.3948 63.2466 64.3524C63.2026 64.3092 63.1351 64.277 63.044 64.2558L62.7426 64.1852C62.577 64.1459 62.4553 64.0851 62.3776 64.0027C62.3007 63.9195 62.2622 63.8155 62.2622 63.6906C62.2622 63.5886 62.2908 63.4983 62.3481 63.4198C62.4062 63.3413 62.4851 63.2797 62.5848 63.235C62.6853 63.1902 62.7991 63.1678 62.9263 63.1678C63.1053 63.1678 63.2458 63.2071 63.3478 63.2856C63.4507 63.3641 63.5237 63.4677 63.5668 63.5964ZM64.0181 65V63.1914H64.296V65H64.0181ZM64.1594 62.89C64.1052 62.89 64.0585 62.8715 64.0193 62.8346C63.9808 62.7977 63.9616 62.7534 63.9616 62.7016C63.9616 62.6497 63.9808 62.6054 64.0193 62.5685C64.0585 62.5316 64.1052 62.5132 64.1594 62.5132C64.2136 62.5132 64.2599 62.5316 64.2984 62.5685C64.3376 62.6054 64.3572 62.6497 64.3572 62.7016C64.3572 62.7534 64.3376 62.7977 64.2984 62.8346C64.2599 62.8715 64.2136 62.89 64.1594 62.89ZM65.4879 65.0377C65.3372 65.0377 65.2041 64.9996 65.0887 64.9235C64.9733 64.8465 64.8831 64.7382 64.8179 64.5985C64.7528 64.458 64.7202 64.2919 64.7202 64.1004C64.7202 63.9104 64.7528 63.7456 64.8179 63.6059C64.8831 63.4661 64.9737 63.3582 65.0899 63.2821C65.2061 63.2059 65.3403 63.1678 65.4926 63.1678C65.6104 63.1678 65.7034 63.1875 65.7717 63.2267C65.8408 63.2652 65.8933 63.3091 65.9295 63.3586C65.9664 63.4073 65.995 63.4473 66.0154 63.4787H66.039V62.5885H66.3168V65H66.0484V64.7221H66.0154C65.995 64.7551 65.966 64.7967 65.9283 64.8469C65.8906 64.8964 65.8368 64.9407 65.767 64.98C65.6971 65.0184 65.6041 65.0377 65.4879 65.0377ZM65.5256 64.7881C65.6371 64.7881 65.7312 64.759 65.8082 64.7009C65.8851 64.642 65.9436 64.5608 65.9836 64.4572C66.0237 64.3528 66.0437 64.2323 66.0437 64.0957C66.0437 63.9607 66.024 63.8425 65.9848 63.7413C65.9456 63.6392 65.8875 63.5599 65.8105 63.5034C65.7336 63.4461 65.6386 63.4175 65.5256 63.4175C65.4078 63.4175 65.3097 63.4477 65.2312 63.5081C65.1535 63.5678 65.095 63.649 65.0558 63.7519C65.0173 63.8539 64.9981 63.9685 64.9981 64.0957C64.9981 64.2244 65.0177 64.3414 65.0569 64.4466C65.097 64.551 65.1559 64.6342 65.2336 64.6962C65.3121 64.7574 65.4094 64.7881 65.5256 64.7881ZM68.0042 64.2605V63.1914H68.2821V65H68.0042V64.6939H67.9853C67.943 64.7857 67.877 64.8638 67.7875 64.9282C67.698 64.9918 67.585 65.0235 67.4484 65.0235C67.3354 65.0235 67.2349 64.9988 67.147 64.9494C67.0591 64.8991 66.99 64.8238 66.9397 64.7233C66.8895 64.622 66.8644 64.4945 66.8644 64.3406V63.1914H67.1423V64.3218C67.1423 64.4536 67.1792 64.5588 67.2529 64.6373C67.3275 64.7158 67.4225 64.7551 67.5379 64.7551C67.607 64.7551 67.6772 64.7374 67.7487 64.7021C67.8209 64.6668 67.8813 64.6126 67.93 64.5396C67.9795 64.4666 68.0042 64.3736 68.0042 64.2605ZM69.3233 65.0424C69.2086 65.0424 69.1046 65.0208 69.0112 64.9776C68.9178 64.9337 68.8436 64.8705 68.7887 64.7881C68.7337 64.7048 68.7063 64.6044 68.7063 64.4866C68.7063 64.383 68.7267 64.299 68.7675 64.2346C68.8083 64.1695 68.8629 64.1185 68.9312 64.0816C68.9994 64.0447 69.0748 64.0172 69.1572 63.9991C69.2404 63.9803 69.324 63.9654 69.408 63.9544C69.5179 63.9403 69.607 63.9297 69.6753 63.9226C69.7444 63.9148 69.7946 63.9018 69.826 63.8837C69.8582 63.8657 69.8743 63.8343 69.8743 63.7895V63.7801C69.8743 63.664 69.8425 63.5737 69.7789 63.5093C69.7161 63.4449 69.6208 63.4128 69.4928 63.4128C69.3602 63.4128 69.2561 63.4418 69.1808 63.4999C69.1054 63.558 69.0524 63.62 69.0218 63.6859L68.7581 63.5917C68.8052 63.4818 68.868 63.3963 68.9465 63.335C69.0257 63.273 69.1121 63.2299 69.2055 63.2055C69.2997 63.1804 69.3923 63.1678 69.4834 63.1678C69.5415 63.1678 69.6082 63.1749 69.6836 63.189C69.7597 63.2024 69.8331 63.2302 69.9038 63.2726C69.9752 63.315 70.0345 63.379 70.0816 63.4646C70.1287 63.5501 70.1522 63.6647 70.1522 63.8084V65H69.8743V64.7551H69.8602C69.8413 64.7943 69.8099 64.8363 69.766 64.8811C69.722 64.9258 69.6635 64.9639 69.5905 64.9953C69.5175 65.0267 69.4284 65.0424 69.3233 65.0424ZM69.3656 64.7928C69.4755 64.7928 69.5682 64.7712 69.6435 64.728C69.7197 64.6848 69.777 64.6291 69.8154 64.5608C69.8547 64.4925 69.8743 64.4207 69.8743 64.3453V64.091C69.8625 64.1051 69.8366 64.1181 69.7966 64.1298C69.7574 64.1408 69.7118 64.1506 69.66 64.1593C69.609 64.1671 69.5591 64.1742 69.5105 64.1805C69.4626 64.186 69.4237 64.1907 69.3939 64.1946C69.3217 64.204 69.2542 64.2193 69.1914 64.2405C69.1294 64.2609 69.0791 64.2919 69.0407 64.3335C69.003 64.3744 68.9841 64.4301 68.9841 64.5007C68.9841 64.5973 69.0199 64.6703 69.0913 64.7198C69.1635 64.7684 69.255 64.7928 69.3656 64.7928ZM70.9373 62.5885V65H70.6594V62.5885H70.9373Z" fill="white"/>
<path d="M55.6477 89.1818V95H54.9432V89.9205H54.9091L53.4886 90.8636V90.1477L54.9432 89.1818H55.6477Z" fill="white"/>
<path d="M41.6023 88V87.4886L43.5227 85.3864C43.7481 85.1402 43.9337 84.9261 44.0795 84.7443C44.2254 84.5606 44.3333 84.3883 44.4034 84.2273C44.4754 84.0644 44.5114 83.8939 44.5114 83.7159C44.5114 83.5114 44.4621 83.3343 44.3636 83.1847C44.267 83.035 44.1345 82.9195 43.9659 82.8381C43.7973 82.7566 43.608 82.7159 43.3977 82.7159C43.1742 82.7159 42.9792 82.7623 42.8125 82.8551C42.6477 82.946 42.5199 83.0739 42.429 83.2386C42.34 83.4034 42.2955 83.5966 42.2955 83.8182H41.625C41.625 83.4773 41.7036 83.178 41.8608 82.9205C42.018 82.6629 42.232 82.4621 42.5028 82.3182C42.7756 82.1742 43.0814 82.1023 43.4205 82.1023C43.7614 82.1023 44.0634 82.1742 44.3267 82.3182C44.59 82.4621 44.7964 82.6562 44.946 82.9006C45.0956 83.1449 45.1705 83.4167 45.1705 83.7159C45.1705 83.9299 45.1316 84.1392 45.054 84.3438C44.9782 84.5464 44.8456 84.7727 44.6562 85.0227C44.4688 85.2708 44.2083 85.5739 43.875 85.9318L42.5682 87.3295V87.375H45.2727V88H41.6023Z" fill="white"/>
<path d="M34.5682 78.0795C34.1932 78.0795 33.8589 78.0152 33.5653 77.8864C33.2737 77.7576 33.0417 77.5786 32.8693 77.3494C32.6989 77.1184 32.6061 76.8504 32.5909 76.5455H33.3068C33.322 76.733 33.3864 76.8949 33.5 77.0312C33.6136 77.1657 33.7623 77.2699 33.946 77.3438C34.1297 77.4176 34.3333 77.4545 34.5568 77.4545C34.8068 77.4545 35.0284 77.411 35.2216 77.3239C35.4148 77.2367 35.5663 77.1155 35.6761 76.9602C35.786 76.8049 35.8409 76.625 35.8409 76.4205C35.8409 76.2064 35.7879 76.018 35.6818 75.8551C35.5758 75.6903 35.4205 75.5616 35.2159 75.4688C35.0114 75.3759 34.7614 75.3295 34.4659 75.3295H34V74.7045H34.4659C34.697 74.7045 34.8996 74.6629 35.0739 74.5795C35.25 74.4962 35.3873 74.3788 35.4858 74.2273C35.5862 74.0758 35.6364 73.8977 35.6364 73.6932C35.6364 73.4962 35.5928 73.3248 35.5057 73.179C35.4186 73.0331 35.2955 72.9195 35.1364 72.8381C34.9792 72.7566 34.7936 72.7159 34.5795 72.7159C34.3788 72.7159 34.1894 72.7528 34.0114 72.8267C33.8352 72.8987 33.6913 73.0038 33.5795 73.142C33.4678 73.2784 33.4072 73.4432 33.3977 73.6364H32.7159C32.7273 73.3314 32.8191 73.0644 32.9915 72.8352C33.1638 72.6042 33.3892 72.4242 33.6676 72.2955C33.9479 72.1667 34.2557 72.1023 34.5909 72.1023C34.9508 72.1023 35.2595 72.1752 35.517 72.321C35.7746 72.465 35.9725 72.6553 36.1108 72.892C36.2491 73.1288 36.3182 73.3845 36.3182 73.6591C36.3182 73.9867 36.232 74.2661 36.0597 74.4972C35.8892 74.7282 35.6572 74.8883 35.3636 74.9773V75.0227C35.7311 75.0833 36.018 75.2396 36.2244 75.4915C36.4309 75.7415 36.5341 76.0511 36.5341 76.4205C36.5341 76.7367 36.4479 77.0208 36.2756 77.2727C36.1051 77.5227 35.8722 77.7197 35.5767 77.8636C35.2813 78.0076 34.9451 78.0795 34.5682 78.0795Z" fill="white"/>
<path d="M26.4659 65.8068V65.2273L29.0227 61.1818H29.4432V62.0795H29.1591L27.2273 65.1364V65.1818H30.6705V65.8068H26.4659ZM29.2045 67V65.6307V65.3608V61.1818H29.875V67H29.2045Z" fill="white"/>
<path d="M25.4205 55.0795C25.0871 55.0795 24.7869 55.0133 24.5199 54.8807C24.2528 54.7481 24.0388 54.5663 23.8778 54.3352C23.7169 54.1042 23.6288 53.8409 23.6136 53.5455H24.2955C24.322 53.8087 24.4413 54.0265 24.6534 54.1989C24.8674 54.3693 25.1231 54.4545 25.4205 54.4545C25.6591 54.4545 25.8712 54.3987 26.0568 54.2869C26.2443 54.1752 26.3911 54.0218 26.4972 53.8267C26.6051 53.6297 26.6591 53.4072 26.6591 53.1591C26.6591 52.9053 26.6032 52.679 26.4915 52.4801C26.3816 52.2794 26.2301 52.1212 26.0369 52.0057C25.8438 51.8902 25.6231 51.8314 25.375 51.8295C25.197 51.8277 25.0142 51.8551 24.8267 51.9119C24.6392 51.9669 24.4848 52.0379 24.3636 52.125L23.7045 52.0455L24.0568 49.1818H27.0795V49.8068H24.6477L24.4432 51.5227H24.4773C24.5966 51.428 24.7462 51.3494 24.9261 51.2869C25.1061 51.2244 25.2936 51.1932 25.4886 51.1932C25.8447 51.1932 26.1619 51.2784 26.4403 51.4489C26.7206 51.6174 26.9403 51.8485 27.0994 52.142C27.2604 52.4356 27.3409 52.7708 27.3409 53.1477C27.3409 53.5189 27.2576 53.8504 27.0909 54.142C26.9261 54.4318 26.6989 54.661 26.4091 54.8295C26.1193 54.9962 25.7898 55.0795 25.4205 55.0795Z" fill="white"/>
<path d="M63.2635 3.01177C63.257 2.04069 64.0424 1.25 65.0135 1.25H72C72.9665 1.25 73.75 2.0335 73.75 3V9C73.75 9.9665 72.9665 10.75 72 10.75H65.0538C64.0919 10.75 63.3104 9.97365 63.3039 9.01177L63.2635 3.01177Z" fill="black" stroke="white" stroke-width="0.5"/>
<path d="M66.4318 5.39234C66.4193 5.28628 66.3683 5.20395 66.279 5.14533C66.1897 5.08672 66.0801 5.05742 65.9504 5.05742C65.8555 5.05742 65.7724 5.07277 65.7013 5.10347C65.6308 5.13417 65.5757 5.17639 65.5359 5.23011C65.4968 5.28384 65.4773 5.3449 65.4773 5.41328C65.4773 5.47049 65.4909 5.51969 65.5181 5.56086C65.546 5.60133 65.5816 5.63517 65.6249 5.66238C65.6681 5.6889 65.7135 5.71088 65.7609 5.72832C65.8084 5.74507 65.852 5.75867 65.8917 5.76914L66.1094 5.82775C66.1653 5.8424 66.2274 5.86264 66.2958 5.88846C66.3648 5.91427 66.4308 5.94951 66.4936 5.99417C66.5571 6.03813 66.6094 6.09465 66.6506 6.16373C66.6917 6.23281 66.7123 6.31758 66.7123 6.41806C66.7123 6.53389 66.682 6.63856 66.6213 6.73206C66.5613 6.82556 66.4733 6.89987 66.3575 6.95499C66.2424 7.01012 66.1025 7.03768 65.9378 7.03768C65.7843 7.03768 65.6514 7.01291 65.539 6.96337C65.4274 6.91383 65.3395 6.84475 65.2753 6.75613C65.2118 6.66751 65.1758 6.56459 65.1675 6.44737H65.4354C65.4424 6.52831 65.4696 6.5953 65.517 6.64833C65.5652 6.70066 65.6259 6.73973 65.6992 6.76555C65.7731 6.79067 65.8527 6.80323 65.9378 6.80323C66.0369 6.80323 66.1258 6.78718 66.2047 6.75508C66.2835 6.72229 66.346 6.67693 66.392 6.61902C66.4381 6.56041 66.4611 6.49203 66.4611 6.41388C66.4611 6.3427 66.4412 6.28479 66.4015 6.24013C66.3617 6.19547 66.3094 6.15919 66.2445 6.13128C66.1796 6.10337 66.1094 6.07895 66.0341 6.05801L65.7703 5.98266C65.6029 5.93451 65.4703 5.86578 65.3726 5.77647C65.2749 5.68715 65.2261 5.57028 65.2261 5.42584C65.2261 5.30582 65.2585 5.20116 65.3234 5.11184C65.389 5.02183 65.4769 4.95205 65.5872 4.90251C65.6981 4.85227 65.822 4.82715 65.9587 4.82715C66.0969 4.82715 66.2197 4.85192 66.3272 4.90147C66.4346 4.95031 66.5197 5.01729 66.5825 5.10242C66.646 5.18755 66.6795 5.28419 66.683 5.39234H66.4318ZM67.8048 5.39234V5.60167H66.9716V5.39234H67.8048ZM67.2145 5.00718H67.4615V6.53947C67.4615 6.60925 67.4716 6.66158 67.4918 6.69647C67.5127 6.73066 67.5393 6.75369 67.5714 6.76555C67.6042 6.77671 67.6387 6.7823 67.675 6.7823C67.7022 6.7823 67.7245 6.7809 67.742 6.77811C67.7594 6.77462 67.7734 6.77183 67.7838 6.76974L67.8341 6.99163C67.8173 6.99791 67.7939 7.00419 67.7639 7.01047C67.7339 7.01744 67.6959 7.02093 67.6499 7.02093C67.5801 7.02093 67.5117 7.00593 67.4447 6.97593C67.3784 6.94592 67.3233 6.90022 67.2793 6.83882C67.2361 6.77741 67.2145 6.69996 67.2145 6.60646V5.00718ZM68.6494 7.03768C68.5475 7.03768 68.4551 7.01849 68.372 6.98011C68.289 6.94104 68.2231 6.88487 68.1742 6.8116C68.1254 6.73764 68.101 6.64833 68.101 6.54366C68.101 6.45156 68.1191 6.37689 68.1554 6.31968C68.1917 6.26176 68.2402 6.21641 68.3009 6.18361C68.3616 6.15082 68.4286 6.1264 68.5018 6.11035C68.5758 6.0936 68.6501 6.08034 68.7248 6.07057C68.8225 6.05801 68.9017 6.04859 68.9624 6.04231C69.0238 6.03534 69.0684 6.02382 69.0963 6.00778C69.1249 5.99173 69.1392 5.96382 69.1392 5.92404V5.91567C69.1392 5.8124 69.111 5.73216 69.0545 5.67494C68.9986 5.61772 68.9139 5.58911 68.8001 5.58911C68.6822 5.58911 68.5898 5.61493 68.5228 5.66657C68.4558 5.7182 68.4087 5.77333 68.3815 5.83194L68.147 5.74821C68.1889 5.65052 68.2447 5.57446 68.3145 5.52004C68.385 5.46491 68.4617 5.42654 68.5447 5.4049C68.6285 5.38258 68.7108 5.37141 68.7918 5.37141C68.8434 5.37141 68.9027 5.37769 68.9697 5.39025C69.0374 5.40211 69.1026 5.42688 69.1654 5.46456C69.2289 5.50224 69.2816 5.55911 69.3235 5.63517C69.3653 5.71122 69.3863 5.8131 69.3863 5.94079V7H69.1392V6.7823H69.1267C69.1099 6.81719 69.082 6.85452 69.043 6.89429C69.0039 6.93406 68.9519 6.9679 68.887 6.99581C68.8221 7.02372 68.7429 7.03768 68.6494 7.03768ZM68.6871 6.81579C68.7848 6.81579 68.8671 6.7966 68.9341 6.75822C69.0018 6.71985 69.0527 6.67031 69.0869 6.6096C69.1218 6.54889 69.1392 6.48505 69.1392 6.41806V6.19199C69.1288 6.20455 69.1057 6.21606 69.0702 6.22653C69.0353 6.23629 68.9948 6.24502 68.9488 6.25269C68.9034 6.25967 68.8591 6.26595 68.8158 6.27153C68.7733 6.27642 68.7387 6.2806 68.7122 6.28409C68.648 6.29246 68.588 6.30607 68.5322 6.32491C68.4771 6.34305 68.4324 6.37061 68.3982 6.4076C68.3647 6.44388 68.348 6.49342 68.348 6.55622C68.348 6.64205 68.3797 6.70694 68.4432 6.7509C68.5074 6.79416 68.5887 6.81579 68.6871 6.81579ZM69.8371 7V5.39234H70.0757V5.63517H70.0925C70.1218 5.55562 70.1748 5.49108 70.2516 5.44154C70.3283 5.392 70.4148 5.36722 70.5111 5.36722C70.5293 5.36722 70.552 5.36757 70.5792 5.36827C70.6064 5.36897 70.627 5.37002 70.6409 5.37141V5.62261C70.6326 5.62051 70.6134 5.61737 70.5834 5.61319C70.5541 5.6083 70.523 5.60586 70.4902 5.60586C70.4121 5.60586 70.3423 5.62226 70.2809 5.65505C70.2202 5.68715 70.172 5.73181 70.1364 5.78903C70.1015 5.84554 70.0841 5.91009 70.0841 5.98266V7H69.8371ZM71.7336 5.39234V5.60167H70.9005V5.39234H71.7336ZM71.1433 5.00718H71.3903V6.53947C71.3903 6.60925 71.4004 6.66158 71.4207 6.69647C71.4416 6.73066 71.4681 6.75369 71.5002 6.76555C71.533 6.77671 71.5676 6.7823 71.6038 6.7823C71.6311 6.7823 71.6534 6.7809 71.6708 6.77811C71.6883 6.77462 71.7022 6.77183 71.7127 6.76974L71.7629 6.99163C71.7462 6.99791 71.7228 7.00419 71.6928 7.01047C71.6628 7.01744 71.6248 7.02093 71.5787 7.02093C71.5089 7.02093 71.4406 7.00593 71.3736 6.97593C71.3073 6.94592 71.2522 6.90022 71.2082 6.83882C71.1649 6.77741 71.1433 6.69996 71.1433 6.60646V5.00718Z" fill="white"/>
<path d="M85.2869 14.0348C85.2676 11.3979 87.3998 9.25 90.0368 9.25H92C94.6234 9.25 96.75 11.3766 96.75 14C96.75 16.6234 94.6234 18.75 92 18.75H90.0368C87.4271 18.75 85.3061 16.6445 85.2869 14.0348Z" fill="black" stroke="white" stroke-width="0.5"/>
<path d="M91.6477 11.1818V17H90.9432V11.9205H90.9091L89.4886 12.8636V12.1477L90.9432 11.1818H91.6477Z" fill="white"/>
<path d="M99.29 30.0378C99.2691 27.3997 101.402 25.25 104.04 25.25H107C109.623 25.25 111.75 27.3766 111.75 30C111.75 32.6234 109.623 34.75 107 34.75H104.04C101.431 34.75 99.3108 32.6463 99.29 30.0378Z" fill="black" stroke="white" stroke-width="0.5"/>
<path d="M103.602 33V32.4886L105.523 30.3864C105.748 30.1402 105.934 29.9261 106.08 29.7443C106.225 29.5606 106.333 29.3883 106.403 29.2273C106.475 29.0644 106.511 28.8939 106.511 28.7159C106.511 28.5114 106.462 28.3343 106.364 28.1847C106.267 28.035 106.134 27.9195 105.966 27.8381C105.797 27.7566 105.608 27.7159 105.398 27.7159C105.174 27.7159 104.979 27.7623 104.812 27.8551C104.648 27.946 104.52 28.0739 104.429 28.2386C104.34 28.4034 104.295 28.5966 104.295 28.8182H103.625C103.625 28.4773 103.704 28.178 103.861 27.9205C104.018 27.6629 104.232 27.4621 104.503 27.3182C104.776 27.1742 105.081 27.1023 105.42 27.1023C105.761 27.1023 106.063 27.1742 106.327 27.3182C106.59 27.4621 106.796 27.6562 106.946 27.9006C107.096 28.1449 107.17 28.4167 107.17 28.7159C107.17 28.9299 107.132 29.1392 107.054 29.3438C106.978 29.5464 106.846 29.7727 106.656 30.0227C106.469 30.2708 106.208 30.5739 105.875 30.9318L104.568 32.3295V32.375H107.273V33H103.602Z" fill="white"/>
<path d="M104.29 50.0378C104.269 47.3997 106.402 45.25 109.04 45.25H112C114.623 45.25 116.75 47.3766 116.75 50C116.75 52.6234 114.623 54.75 112 54.75H109.04C106.431 54.75 104.311 52.6463 104.29 50.0378Z" fill="black" stroke="white" stroke-width="0.5"/>
<path d="M110.568 53.0795C110.193 53.0795 109.859 53.0152 109.565 52.8864C109.274 52.7576 109.042 52.5786 108.869 52.3494C108.699 52.1184 108.606 51.8504 108.591 51.5455H109.307C109.322 51.733 109.386 51.8949 109.5 52.0312C109.614 52.1657 109.762 52.2699 109.946 52.3438C110.13 52.4176 110.333 52.4545 110.557 52.4545C110.807 52.4545 111.028 52.411 111.222 52.3239C111.415 52.2367 111.566 52.1155 111.676 51.9602C111.786 51.8049 111.841 51.625 111.841 51.4205C111.841 51.2064 111.788 51.018 111.682 50.8551C111.576 50.6903 111.42 50.5616 111.216 50.4688C111.011 50.3759 110.761 50.3295 110.466 50.3295H110V49.7045H110.466C110.697 49.7045 110.9 49.6629 111.074 49.5795C111.25 49.4962 111.387 49.3788 111.486 49.2273C111.586 49.0758 111.636 48.8977 111.636 48.6932C111.636 48.4962 111.593 48.3248 111.506 48.179C111.419 48.0331 111.295 47.9195 111.136 47.8381C110.979 47.7566 110.794 47.7159 110.58 47.7159C110.379 47.7159 110.189 47.7528 110.011 47.8267C109.835 47.8987 109.691 48.0038 109.58 48.142C109.468 48.2784 109.407 48.4432 109.398 48.6364H108.716C108.727 48.3314 108.819 48.0644 108.991 47.8352C109.164 47.6042 109.389 47.4242 109.668 47.2955C109.948 47.1667 110.256 47.1023 110.591 47.1023C110.951 47.1023 111.259 47.1752 111.517 47.321C111.775 47.465 111.973 47.6553 112.111 47.892C112.249 48.1288 112.318 48.3845 112.318 48.6591C112.318 48.9867 112.232 49.2661 112.06 49.4972C111.889 49.7282 111.657 49.8883 111.364 49.9773V50.0227C111.731 50.0833 112.018 50.2396 112.224 50.4915C112.431 50.7415 112.534 51.0511 112.534 51.4205C112.534 51.7367 112.448 52.0208 112.276 52.2727C112.105 52.5227 111.872 52.7197 111.577 52.8636C111.281 53.0076 110.945 53.0795 110.568 53.0795Z" fill="white"/>
<path d="M98.2869 72.0348C98.2676 69.3979 100.4 67.25 103.037 67.25H105C107.623 67.25 109.75 69.3766 109.75 72C109.75 74.6234 107.623 76.75 105 76.75H103.037C100.427 76.75 98.3061 74.6445 98.2869 72.0348Z" fill="black" stroke="white" stroke-width="0.5"/>
<path d="M101.466 73.8068V73.2273L104.023 69.1818H104.443V70.0795H104.159L102.227 73.1364V73.1818H105.67V73.8068H101.466ZM104.205 75V73.6307V73.3608V69.1818H104.875V75H104.205Z" fill="white"/>
<path d="M82.29 88.0378C82.2691 85.3997 84.4018 83.25 87.0399 83.25H90C92.6234 83.25 94.75 85.3766 94.75 88C94.75 90.6234 92.6234 92.75 90 92.75H87.0399C84.4313 92.75 82.3108 90.6463 82.29 88.0378Z" fill="black" stroke="white" stroke-width="0.5"/>
<path d="M88.4205 91.0795C88.0871 91.0795 87.7869 91.0133 87.5199 90.8807C87.2528 90.7481 87.0388 90.5663 86.8778 90.3352C86.7169 90.1042 86.6288 89.8409 86.6136 89.5455H87.2955C87.322 89.8087 87.4413 90.0265 87.6534 90.1989C87.8674 90.3693 88.1231 90.4545 88.4205 90.4545C88.6591 90.4545 88.8712 90.3987 89.0568 90.2869C89.2443 90.1752 89.3911 90.0218 89.4972 89.8267C89.6051 89.6297 89.6591 89.4072 89.6591 89.1591C89.6591 88.9053 89.6032 88.679 89.4915 88.4801C89.3816 88.2794 89.2301 88.1212 89.0369 88.0057C88.8438 87.8902 88.6231 87.8314 88.375 87.8295C88.197 87.8277 88.0142 87.8551 87.8267 87.9119C87.6392 87.9669 87.4848 88.0379 87.3636 88.125L86.7045 88.0455L87.0568 85.1818H90.0795V85.8068H87.6477L87.4432 87.5227H87.4773C87.5966 87.428 87.7462 87.3494 87.9261 87.2869C88.1061 87.2244 88.2936 87.1932 88.4886 87.1932C88.8447 87.1932 89.1619 87.2784 89.4403 87.4489C89.7206 87.6174 89.9403 87.8485 90.0994 88.142C90.2604 88.4356 90.3409 88.7708 90.3409 89.1477C90.3409 89.5189 90.2576 89.8504 90.0909 90.142C89.9261 90.4318 89.6989 90.661 89.4091 90.8295C89.1193 90.9962 88.7898 91.0795 88.4205 91.0795Z" fill="white"/>
<path d="M63.2635 91.0118C63.257 90.0407 64.0424 89.25 65.0135 89.25H72C72.9665 89.25 73.75 90.0335 73.75 91V97C73.75 97.9665 72.9665 98.75 72 98.75H65.0538C64.0919 98.75 63.3104 97.9737 63.3039 97.0118L63.2635 91.0118Z" fill="black" stroke="white" stroke-width="0.5"/>
<path d="M68.5341 97.0795C68.2955 97.0758 68.0568 97.0303 67.8182 96.9432C67.5795 96.8561 67.3617 96.7093 67.1648 96.5028C66.9678 96.2945 66.8097 96.0133 66.6903 95.6591C66.571 95.303 66.5114 94.8561 66.5114 94.3182C66.5114 93.803 66.5597 93.3466 66.6562 92.9489C66.7528 92.5492 66.893 92.2131 67.0767 91.9403C67.2604 91.6657 67.482 91.4574 67.7415 91.3153C68.0028 91.1733 68.2973 91.1023 68.625 91.1023C68.9508 91.1023 69.2405 91.1676 69.4943 91.2983C69.75 91.4271 69.9583 91.607 70.1193 91.8381C70.2803 92.0691 70.3845 92.3352 70.4318 92.6364H69.7386C69.6742 92.375 69.5492 92.1581 69.3636 91.9858C69.178 91.8134 68.9318 91.7273 68.625 91.7273C68.1742 91.7273 67.8191 91.9233 67.5597 92.3153C67.3021 92.7074 67.1723 93.2576 67.1705 93.9659H67.2159C67.322 93.8049 67.4479 93.6676 67.5938 93.554C67.7415 93.4384 67.9044 93.3494 68.0824 93.2869C68.2604 93.2244 68.4489 93.1932 68.6477 93.1932C68.9811 93.1932 69.286 93.2765 69.5625 93.4432C69.839 93.608 70.0606 93.8362 70.2273 94.1278C70.3939 94.4176 70.4773 94.75 70.4773 95.125C70.4773 95.4848 70.3968 95.8144 70.2358 96.1136C70.0748 96.411 69.8485 96.6477 69.5568 96.8239C69.267 96.9981 68.9261 97.0833 68.5341 97.0795ZM68.5341 96.4545C68.7727 96.4545 68.9867 96.3949 69.1761 96.2756C69.3674 96.1562 69.518 95.9962 69.6278 95.7955C69.7396 95.5947 69.7955 95.3712 69.7955 95.125C69.7955 94.8845 69.7415 94.6657 69.6335 94.4688C69.5275 94.2699 69.3807 94.1117 69.1932 93.9943C69.0076 93.8769 68.7955 93.8182 68.5568 93.8182C68.3769 93.8182 68.2093 93.8542 68.054 93.9261C67.8987 93.9962 67.7623 94.0928 67.6449 94.2159C67.5294 94.339 67.4384 94.4801 67.3722 94.6392C67.3059 94.7964 67.2727 94.9621 67.2727 95.1364C67.2727 95.3674 67.3267 95.5833 67.4347 95.7841C67.5445 95.9848 67.6941 96.1468 67.8835 96.2699C68.0748 96.393 68.2917 96.4545 68.5341 96.4545Z" fill="white"/>
<rect x="55.5" y="43.5" width="19" height="27" stroke="black"/>
</svg>
