<svg width="35" height="35" viewBox="0 0 35 35" fill="none" xmlns="http://www.w3.org/2000/svg">
<path d="M24.7886 3.02734H10.5268C6.58857 3.02734 3.39597 6.21995 3.39597 10.1582V24.42C3.39597 28.3582 6.58857 31.5508 10.5268 31.5508H24.7886C28.7269 31.5508 31.9195 28.3582 31.9195 24.42V10.1582C31.9195 6.21995 28.7269 3.02734 24.7886 3.02734Z" stroke="white" stroke-width="1.71141" stroke-linecap="round" stroke-linejoin="round"/>
<path d="M23.3623 16.3904C23.5383 17.5773 23.3356 18.7895 22.7829 19.8546C22.2303 20.9196 21.3559 21.7833 20.2841 22.3228C19.2123 22.8623 17.9977 23.05 16.813 22.8594C15.6284 22.6688 14.534 22.1095 13.6855 21.261C12.837 20.4125 12.2777 19.3181 12.0871 18.1335C11.8964 16.9488 12.0842 15.7342 12.6237 14.6624C13.1632 13.5906 14.0268 12.7162 15.0919 12.1635C16.157 11.6109 17.3692 11.4082 18.5561 11.5842C19.7668 11.7637 20.8877 12.3279 21.7532 13.1933C22.6186 14.0588 23.1828 15.1797 23.3623 16.3904Z" stroke="white" stroke-width="1.71141" stroke-linecap="round" stroke-linejoin="round"/>
<path d="M25.5016 9.44531H25.5159" stroke="white" stroke-width="2.85235" stroke-linecap="round" stroke-linejoin="round"/>
</svg>
