<svg width="35" height="35" viewBox="0 0 35 35" fill="none" xmlns="http://www.w3.org/2000/svg">
<g clip-path="url(#clip0_25_164)">
<path d="M32.9162 4.81317C31.5504 5.77652 30.0383 6.51333 28.438 6.99522C27.579 6.00761 26.4375 5.30761 25.1678 4.98991C23.8981 4.67221 22.5614 4.75212 21.3386 5.21885C20.1158 5.68558 19.0658 6.51659 18.3306 7.59951C17.5955 8.68243 17.2107 9.96499 17.2282 11.2737V12.6999C14.7219 12.7649 12.2384 12.209 9.99897 11.0818C7.7595 9.95464 5.83355 8.29109 4.39266 6.23934C4.39266 6.23934 -1.31204 19.0749 11.5235 24.7796C8.58637 26.7734 5.08743 27.7731 1.54031 27.632C14.3759 34.7628 30.0638 27.632 30.0638 11.231C30.0625 10.8337 30.0243 10.4374 29.9497 10.0472C31.4053 8.61178 32.4324 6.79942 32.9162 4.81317V4.81317Z" stroke="white" stroke-width="1.71141" stroke-linecap="round" stroke-linejoin="round"/>
</g>
<defs>
<clipPath id="clip0_25_164">
<rect width="34.2282" height="34.2282" fill="white" transform="translate(0.114075 0.536133)"/>
</clipPath>
</defs>
</svg>
